<?xml version="1.0" encoding="UTF-8"?><svg id="a" xmlns="http://www.w3.org/2000/svg" viewBox="0 0 3000 3000"><defs><style>.b{fill:#fff;}.c{fill:#2faae1;}.d{fill:#282828;}.e{stroke:#fff;}.e,.f{fill:none;stroke-linecap:round;stroke-linejoin:round;stroke-width:2px;}.f{stroke:#1d1d1b;}.g{fill:#4384c5;}</style></defs><rect class="d" width="3000" height="3000"/><g><g><polygon class="g" points="2751 1500 2751 1716 2679 1788 2679 1644 2679 1500 2679 1428 2751 1500"/><polygon class="c" points="2679 1644 2679 1788 2607 1716 2679 1644"/><polygon class="c" points="2679 1500 2679 1644 2607 1644 2607 1572 2679 1500"/><polygon class="c" points="2679 1428 2679 1500 2607 1500 2679 1428"/><polygon class="g" points="2679 1428 2607 1500 2535 1500 2463 1428 2679 1428"/><polygon class="c" points="2679 1500 2607 1572 2607 1500 2679 1500"/><polygon class="c" points="2679 1644 2607 1716 2607 1644 2679 1644"/><polygon class="c" points="2679 1788 2463 1788 2535 1716 2607 1716 2679 1788"/><rect class="g" x="2535" y="1644" width="72" height="72"/><rect class="c" x="2535" y="1500" width="72" height="72"/><polygon class="g" points="2535 1644 2535 1716 2463 1644 2535 1644"/><polygon class="g" points="2535 1572 2535 1644 2463 1644 2463 1500 2535 1572"/><polygon class="g" points="2535 1500 2535 1572 2463 1500 2535 1500"/><polygon class="g" points="2535 1716 2463 1788 2463 1644 2535 1716"/><polygon class="g" points="2535 1500 2463 1500 2463 1428 2535 1500"/><polygon class="c" points="2463 1644 2463 1788 2391 1716 2391 1500 2463 1428 2463 1500 2463 1644"/><polygon class="g" points="2319 1716 2319 1788 2031 1788 2031 1716 2175 1716 2247 1716 2319 1716"/><polygon class="g" points="2319 1356 2319 1716 2247 1716 2247 1284 2319 1356"/><polygon class="c" points="2319 1788 2247 1860 1959 1860 2031 1788 2319 1788"/><polygon class="c" points="2247 1284 2247 1716 2175 1716 2175 1356 2175 1284 2247 1284"/><polygon class="c" points="2247 1284 2175 1284 2175 1212 2247 1284"/><polygon class="g" points="2175 1284 2175 1356 2103 1284 2175 1284"/><polygon class="c" points="2175 1212 2175 1284 2103 1284 2031 1284 1959 1284 1887 1284 1383 1284 1383 1221 1311 1221 1311 1284 1310 1284 1310 1221 1238 1221 1238 1284 1023 1284 1095 1212 2175 1212"/><polygon class="g" points="2175 1212 1095 1212 1023 1140 2103 1140 2175 1212"/><polygon class="g" points="2031 1716 2031 1788 1959 1716 2031 1716"/><rect class="g" x="1959" y="1284" width="72" height="432"/><polygon class="g" points="2031 1788 1959 1860 1959 1716 2031 1788"/><polygon class="c" points="1959 1716 1959 1860 1887 1788 1887 1284 1959 1284 1959 1716"/><polygon class="g" points="1815 1500 1815 1716 1743 1788 1743 1644 1743 1500 1743 1428 1815 1500"/><polygon class="c" points="1743 1644 1743 1788 1671 1716 1743 1644"/><polygon class="c" points="1743 1500 1743 1644 1671 1644 1671 1572 1743 1500"/><polygon class="c" points="1743 1428 1743 1500 1671 1500 1743 1428"/><polygon class="g" points="1743 1428 1671 1500 1599 1500 1527 1428 1743 1428"/><polygon class="c" points="1743 1500 1671 1572 1671 1500 1743 1500"/><polygon class="c" points="1743 1644 1671 1716 1671 1644 1743 1644"/><polygon class="c" points="1743 1788 1527 1788 1599 1716 1671 1716 1743 1788"/><rect class="g" x="1599" y="1644" width="72" height="72"/><rect class="c" x="1599" y="1500" width="72" height="72"/><polygon class="g" points="1599 1644 1599 1716 1527 1644 1599 1644"/><polygon class="g" points="1599 1572 1599 1644 1527 1644 1527 1500 1599 1572"/><polygon class="g" points="1599 1500 1599 1572 1527 1500 1599 1500"/><polygon class="g" points="1599 1716 1527 1788 1527 1644 1599 1716"/><polygon class="g" points="1599 1500 1527 1500 1527 1428 1599 1500"/><polygon class="c" points="1527 1644 1527 1788 1455 1716 1455 1500 1527 1428 1527 1500 1527 1644"/><polygon class="g" points="1383 1284 1383 1788 1311 1860 1311 1284 1383 1284"/><rect class="c" x="1311" y="1221" width="72" height="63"/><polygon class="c" points="1310 1284 1310 1860 1238 1788 1238 1284 1310 1284"/><rect class="c" x="1238" y="1221" width="72" height="63"/><polygon class="c" points="1095 1212 1023 1284 1023 1212 1095 1212"/><polygon class="c" points="1095 1212 1023 1212 1023 1140 1095 1212"/><polygon class="c" points="1023 1212 1023 1284 951 1212 1023 1140 1023 1212"/><polygon class="g" points="969 1356 897 1428 897 1356 897 1284 969 1356"/><polygon class="g" points="969 1644 897 1716 897 1644 897 1572 969 1644"/><polygon class="g" points="897 1644 897 1716 825 1644 897 1644"/><polygon class="g" points="897 1572 897 1644 825 1644 897 1572"/><polygon class="g" points="897 1356 897 1428 825 1356 897 1356"/><polygon class="g" points="897 1284 897 1356 825 1356 897 1284"/><polygon class="c" points="897 1284 825 1356 807 1356 807 1284 897 1284"/><polygon class="c" points="897 1572 825 1644 807 1644 807 1572 897 1572"/><polygon class="g" points="897 1428 807 1428 807 1356 825 1356 897 1428"/><polygon class="g" points="897 1716 807 1716 807 1644 825 1644 897 1716"/><polygon class="g" points="807 1716 807 1788 735 1860 735 1716 807 1716"/><rect class="g" x="735" y="1644" width="72" height="72"/><rect class="g" x="735" y="1572" width="72" height="72"/><rect class="g" x="735" y="1428" width="72" height="144"/><rect class="g" x="735" y="1356" width="72" height="72"/><rect class="g" x="735" y="1284" width="72" height="72"/><polygon class="g" points="807 1212 807 1284 735 1284 807 1212"/><polygon class="c" points="807 1212 735 1284 735 1212 807 1212"/><polygon class="c" points="807 1212 735 1212 663 1212 735 1140 807 1212"/><polygon class="c" points="735 1716 735 1860 663 1788 663 1716 735 1716"/><rect class="c" x="663" y="1644" width="72" height="72"/><rect class="c" x="663" y="1572" width="72" height="72"/><rect class="c" x="663" y="1428" width="72" height="144"/><rect class="c" x="663" y="1356" width="72" height="72"/><rect class="c" x="663" y="1284" width="72" height="72"/><polygon class="c" points="735 1212 735 1284 663 1212 735 1212"/><polygon class="c" points="735 1284 663 1284 663 1212 735 1284"/><rect class="g" x="519" y="1644" width="144" height="72"/><rect class="c" x="519" y="1572" width="144" height="72"/><rect class="g" x="519" y="1356" width="144" height="72"/><rect class="c" x="519" y="1284" width="144" height="72"/><polygon class="g" points="519 1716 519 1788 447 1860 447 1716 519 1716"/><rect class="g" x="447" y="1644" width="72" height="72"/><rect class="g" x="447" y="1572" width="72" height="72"/><rect class="g" x="447" y="1428" width="72" height="144"/><rect class="g" x="447" y="1356" width="72" height="72"/><rect class="g" x="447" y="1284" width="72" height="72"/><polygon class="g" points="519 1212 519 1284 447 1284 519 1212"/><polygon class="c" points="519 1212 447 1284 447 1212 519 1212"/><polygon class="c" points="519 1212 447 1212 375 1212 447 1140 519 1212"/><polygon class="c" points="447 1716 447 1860 375 1788 375 1716 447 1716"/><rect class="c" x="375" y="1644" width="72" height="72"/><rect class="c" x="375" y="1572" width="72" height="72"/><rect class="c" x="375" y="1428" width="72" height="144"/><rect class="c" x="375" y="1356" width="72" height="72"/><rect class="c" x="375" y="1284" width="72" height="72"/><polygon class="c" points="447 1212 447 1284 375 1212 447 1212"/><polygon class="c" points="447 1284 375 1284 375 1212 447 1284"/><polygon class="g" points="375 1644 375 1716 321 1716 249 1644 375 1644"/><polygon class="c" points="375 1572 375 1644 249 1644 321 1572 375 1572"/><polygon class="g" points="375 1356 375 1428 321 1428 249 1356 375 1356"/><polygon class="c" points="375 1284 375 1356 249 1356 321 1284 375 1284"/></g><g><polyline class="e" points="2319 1788 2247 1860 1959 1860"/><line class="e" x1="1599" y1="1572" x2="1671" y2="1572"/><line class="e" x1="1671" y1="1644" x2="1599" y2="1644"/><polyline class="e" points="1310 1284 1310 1860 1238 1788 1238 1284"/><polyline class="e" points="2031 1788 2319 1788 2319 1716"/><line class="e" x1="2175" y1="1716" x2="2031" y2="1716"/><polyline class="e" points="1383 1284 1383 1788 1311 1860 1311 1284"/><polyline class="e" points="1959 1860 1887 1788 1887 1284"/><polyline class="e" points="2031 1284 2031 1716 2031 1788 1959 1860 1959 1716 1959 1284"/><polyline class="e" points="2247 1716 2175 1716 2175 1356"/><line class="e" x1="2175" y1="1284" x2="2175" y2="1356"/><polygon class="e" points="2319 1716 2247 1716 2247 1284 2319 1356 2319 1716"/><polyline class="e" points="1527 1788 1455 1716 1455 1500 1527 1428"/><polyline class="e" points="1599 1500 1599 1572 1599 1644 1599 1716"/><polyline class="e" points="1527 1788 1527 1644 1527 1500 1527 1428"/><polyline class="e" points="1743 1788 1527 1788 1599 1716 1671 1716"/><polyline class="e" points="1743 1428 1527 1428 1599 1500 1671 1500"/><polyline class="e" points="1743 1788 1671 1716 1671 1644 1671 1572 1671 1500 1743 1428"/><polygon class="e" points="1743 1428 1815 1500 1815 1716 1743 1788 1743 1644 1743 1500 1743 1428"/><polyline class="e" points="2175 1212 2247 1284 2175 1284 2103 1284 2031 1284 1959 1284 1887 1284 1383 1284 1311 1284 1310 1284 1238 1284 1023 1284"/><polyline class="e" points="1023 1140 2103 1140 2175 1212 1095 1212"/><rect class="e" x="972.09" y="1161.09" width="101.82" height="101.82" transform="translate(-557.38 1078.36) rotate(-45)"/><line class="e" x1="807" y1="1284" x2="897" y2="1284"/><line class="e" x1="519" y1="1284" x2="663" y2="1284"/><polyline class="e" points="249 1356 321 1284 375 1284"/><line class="e" x1="663" y1="1428" x2="519" y2="1428"/><line class="e" x1="897" y1="1428" x2="807" y2="1428"/><line class="e" x1="807" y1="1356" x2="825" y2="1356"/><line class="e" x1="519" y1="1356" x2="663" y2="1356"/><polyline class="e" points="375 1428 321 1428 249 1356 375 1356"/><rect class="e" x="846.09" y="1305.09" width="101.82" height="101.82" transform="translate(-696.11 1031.44) rotate(-45)"/><line class="e" x1="807" y1="1572" x2="897" y2="1572"/><line class="e" x1="519" y1="1572" x2="663" y2="1572"/><polyline class="e" points="249 1644 321 1572 375 1572"/><line class="e" x1="663" y1="1716" x2="519" y2="1716"/><line class="e" x1="897" y1="1716" x2="807" y2="1716"/><line class="e" x1="807" y1="1644" x2="825" y2="1644"/><line class="e" x1="519" y1="1644" x2="663" y2="1644"/><polyline class="e" points="375 1716 321 1716 249 1644 375 1644"/><rect class="e" x="846.09" y="1593.09" width="101.82" height="101.82" transform="translate(-899.76 1115.79) rotate(-45)"/><polyline class="e" points="447 1860 375 1788 375 1716 375 1644 375 1572 375 1428 375 1356 375 1284 375 1212"/><polyline class="e" points="519 1212 519 1284 519 1356 519 1428 519 1572 519 1644 519 1716 519 1788 447 1860 447 1716 447 1644 447 1572 447 1428 447 1356 447 1284"/><rect class="e" x="396.09" y="1161.09" width="101.82" height="101.82" transform="translate(-726.09 671.06) rotate(-45)"/><polyline class="e" points="735 1860 663 1788 663 1716 663 1644 663 1572 663 1428 663 1356 663 1284 663 1212"/><polyline class="e" points="807 1212 807 1284 807 1356 807 1428 807 1572 807 1644 807 1716 807 1788 735 1860 735 1716 735 1644 735 1572 735 1428 735 1356 735 1284"/><rect class="e" x="684.09" y="1161.09" width="101.82" height="101.82" transform="translate(-641.74 874.71) rotate(-45)"/><line class="e" x1="2535" y1="1572" x2="2607" y2="1572"/><line class="e" x1="2607" y1="1644" x2="2535" y2="1644"/><polyline class="e" points="2463 1788 2391 1716 2391 1500 2463 1428"/><polyline class="e" points="2535 1500 2535 1572 2535 1644 2535 1716"/><polyline class="e" points="2463 1788 2463 1644 2463 1500 2463 1428"/><polyline class="e" points="2679 1788 2463 1788 2535 1716 2607 1716"/><polyline class="e" points="2679 1428 2463 1428 2535 1500 2607 1500"/><polyline class="e" points="2679 1788 2607 1716 2607 1644 2607 1572 2607 1500 2679 1428"/><polygon class="e" points="2679 1428 2751 1500 2751 1716 2679 1788 2679 1644 2679 1500 2679 1428"/></g></g><g><g><g><polygon class="b" points="2010.19 1962.07 1980.12 1992.14 1980.12 1962.07 1980.12 1932 2010.19 1962.07"/><polygon class="b" points="2010.19 2202.62 1980.12 2232.69 1980.12 2202.62 1980.12 2172.55 2010.19 2202.62"/><polygon class="b" points="1980.12 2202.62 1980.12 2232.69 1950.05 2202.62 1980.12 2202.62"/><polygon class="b" points="1980.12 2172.55 1980.12 2202.62 1950.05 2202.62 1980.12 2172.55"/><polygon class="b" points="1980.12 1962.07 1980.12 1992.14 1950.05 1962.07 1980.12 1962.07"/><polygon class="b" points="1980.12 1932 1980.12 1962.07 1950.05 1962.07 1980.12 1932"/><polygon class="b" points="1980.12 1932 1950.05 1962.07 1769.64 1962.07 1739.57 1932 1980.12 1932"/><polygon class="b" points="1980.12 2172.55 1950.05 2202.62 1769.64 2202.62 1769.64 2172.55 1980.12 2172.55"/><polygon class="b" points="1980.12 1992.14 1769.64 1992.14 1769.64 1962.07 1950.05 1962.07 1980.12 1992.14"/><polygon class="b" points="1980.12 2232.69 1739.57 2232.69 1769.64 2202.62 1950.05 2202.62 1980.12 2232.69"/><polygon class="b" points="1831.08 2082.34 1801.01 2112.41 1801.01 2111.1 1829.77 2082.34 1801.01 2053.59 1801.01 2052.28 1831.08 2082.34"/><polygon class="b" points="1829.77 2082.34 1801.01 2111.1 1801.01 2082.34 1801.01 2053.59 1829.77 2082.34"/><polygon class="b" points="1801.01 2111.1 1801.01 2112.41 1800.36 2111.75 1801.01 2111.1"/><polygon class="b" points="1801.01 2082.34 1801.01 2111.1 1800.36 2111.75 1799.7 2111.1 1799.7 2082.34 1801.01 2082.34"/><polygon class="b" points="1801.01 2053.59 1801.01 2082.34 1799.7 2082.34 1799.7 2053.59 1800.36 2052.93 1801.01 2053.59"/><polygon class="b" points="1801.01 2052.28 1801.01 2053.59 1800.36 2052.93 1801.01 2052.28"/><polygon class="b" points="1801.01 2052.28 1800.36 2052.93 1799.7 2052.28 1801.01 2052.28"/><polygon class="b" points="1800.36 2111.75 1801.01 2112.41 1799.7 2112.41 1800.36 2111.75"/><polygon class="b" points="1800.36 2111.75 1799.7 2112.41 1799.7 2111.1 1800.36 2111.75"/><polygon class="b" points="1800.36 2052.93 1799.7 2053.59 1799.7 2052.28 1800.36 2052.93"/><polygon class="b" points="1799.7 2111.1 1799.7 2112.41 1769.64 2082.34 1770.95 2082.34 1799.7 2111.1"/><polygon class="b" points="1799.7 2082.34 1799.7 2111.1 1770.95 2082.34 1799.7 2082.34"/><polygon class="b" points="1799.7 2053.59 1799.7 2082.34 1770.95 2082.34 1799.7 2053.59"/><polygon class="b" points="1799.7 2052.28 1799.7 2053.59 1770.95 2082.34 1769.64 2082.34 1799.7 2052.28"/><polygon class="b" points="1799.7 2052.28 1769.64 2082.34 1769.64 2052.28 1799.7 2052.28"/><polygon class="b" points="1769.64 2082.34 1799.7 2112.41 1769.64 2112.41 1769.64 2082.34"/><rect class="b" x="1739.57" y="2172.55" width="30.07" height="30.07"/><rect class="b" x="1739.57" y="2112.41" width="30.07" height="60.14"/><rect class="b" x="1739.57" y="2082.34" width="30.07" height="30.07"/><rect class="b" x="1739.57" y="2052.28" width="30.07" height="30.06"/><rect class="b" x="1739.57" y="1992.14" width="30.07" height="60.14"/><polygon class="b" points="1769.64 1962.07 1769.64 1992.14 1739.57 1992.14 1769.64 1962.07"/><polygon class="b" points="1769.64 1962.07 1739.57 1992.14 1739.57 1962.07 1769.64 1962.07"/><polygon class="b" points="1769.64 2202.62 1739.57 2232.69 1739.57 2202.62 1769.64 2202.62"/><polygon class="b" points="1769.64 1962.07 1739.57 1962.07 1709.5 1962.07 1739.57 1932 1769.64 1962.07"/><polygon class="b" points="1739.57 2202.62 1739.57 2232.69 1709.5 2202.62 1739.57 2202.62"/><polygon class="b" points="1739.57 2172.55 1739.57 2202.62 1709.5 2202.62 1739.57 2172.55"/><polygon class="b" points="1739.57 2112.41 1739.57 2172.55 1709.5 2202.62 1709.5 2112.41 1739.57 2112.41"/><rect class="b" x="1709.5" y="2082.34" width="30.07" height="30.07"/><rect class="b" x="1709.5" y="2052.28" width="30.07" height="30.06"/><polygon class="b" points="1739.57 1992.14 1739.57 2052.28 1709.5 2052.28 1709.5 1962.07 1739.57 1992.14"/><polygon class="b" points="1739.57 1962.07 1739.57 1992.14 1709.5 1962.07 1739.57 1962.07"/><rect class="b" x="1650.67" y="2082.34" width="58.83" height="30.07"/><rect class="b" x="1650.67" y="2052.28" width="58.83" height="30.06"/><polygon class="b" points="1650.67 2112.41 1650.67 2202.62 1620.6 2172.55 1620.6 2112.41 1650.67 2112.41"/><rect class="b" x="1620.6" y="2082.34" width="30.07" height="30.07"/><rect class="b" x="1620.6" y="2052.28" width="30.07" height="30.06"/><polygon class="b" points="1650.67 1962.07 1650.67 2052.28 1620.6 2052.28 1620.6 1992.14 1650.67 1962.07"/><polygon class="b" points="1650.67 1962.07 1620.6 1992.14 1620.6 1962.07 1650.67 1962.07"/><polygon class="b" points="1650.67 2202.62 1620.6 2232.69 1620.6 2202.62 1620.6 2172.55 1650.67 2202.62"/><polygon class="b" points="1650.67 1962.07 1620.6 1962.07 1620.6 1932 1650.67 1962.07"/><polygon class="b" points="1620.6 2202.62 1620.6 2232.69 1590.53 2202.62 1620.6 2202.62"/><polygon class="b" points="1620.6 2172.55 1620.6 2202.62 1590.53 2202.62 1620.6 2172.55"/><rect class="b" x="1590.53" y="2112.41" width="30.07" height="60.14"/><rect class="b" x="1590.53" y="2082.34" width="30.07" height="30.07"/><rect class="b" x="1590.53" y="2052.28" width="30.07" height="30.06"/><rect class="b" x="1590.53" y="1992.14" width="30.07" height="60.14"/><polygon class="b" points="1620.6 1962.07 1620.6 1992.14 1590.53 1962.07 1620.6 1962.07"/><polygon class="b" points="1620.6 1932 1620.6 1962.07 1590.53 1962.07 1620.6 1932"/><polygon class="b" points="1620.6 1932 1590.53 1962.07 1410.12 1962.07 1380.05 1932 1620.6 1932"/><polygon class="b" points="1620.6 2172.55 1590.53 2202.62 1590.53 2172.55 1620.6 2172.55"/><polygon class="b" points="1620.6 1992.14 1590.53 1992.14 1590.53 1962.07 1620.6 1992.14"/><polygon class="b" points="1620.6 2232.69 1380.05 2232.69 1410.12 2202.62 1590.53 2202.62 1620.6 2232.69"/><rect class="b" x="1410.12" y="2172.55" width="180.41" height="30.07"/><polygon class="b" points="1590.53 2082.34 1590.53 2112.41 1560.46 2112.41 1530.39 2082.34 1590.53 2082.34"/><polygon class="b" points="1590.53 2052.28 1590.53 2082.34 1530.39 2082.34 1560.46 2052.28 1590.53 2052.28"/><rect class="b" x="1410.12" y="1962.07" width="180.41" height="30.07"/><polygon class="b" points="1560.46 2052.28 1530.39 2082.34 1529.08 2082.34 1559.15 2052.28 1560.46 2052.28"/><polygon class="b" points="1560.46 2112.41 1559.15 2112.41 1529.08 2082.34 1530.39 2082.34 1560.46 2112.41"/><polygon class="b" points="1470.26 2082.34 1440.19 2112.41 1440.19 2082.34 1440.19 2052.28 1470.26 2082.34"/><polygon class="b" points="1440.19 2082.34 1440.19 2112.41 1410.12 2082.34 1440.19 2082.34"/><polygon class="b" points="1440.19 2052.28 1440.19 2082.34 1410.12 2082.34 1440.19 2052.28"/><polygon class="b" points="1440.19 2052.28 1410.12 2082.34 1410.12 2052.28 1440.19 2052.28"/><polygon class="b" points="1440.19 2112.41 1410.12 2112.41 1410.12 2082.34 1440.19 2112.41"/><rect class="b" x="1380.05" y="2172.55" width="30.07" height="30.07"/><rect class="b" x="1380.05" y="2112.41" width="30.07" height="60.14"/><rect class="b" x="1380.05" y="2082.34" width="30.07" height="30.07"/><rect class="b" x="1380.05" y="2052.28" width="30.07" height="30.06"/><rect class="b" x="1380.05" y="1992.14" width="30.07" height="60.14"/><polygon class="b" points="1410.12 1962.07 1410.12 1992.14 1380.05 1992.14 1410.12 1962.07"/><polygon class="b" points="1410.12 1962.07 1380.05 1992.14 1380.05 1962.07 1410.12 1962.07"/><polygon class="b" points="1410.12 2202.62 1380.05 2232.69 1380.05 2202.62 1410.12 2202.62"/><polygon class="b" points="1410.12 1962.07 1380.05 1962.07 1349.98 1962.07 1380.05 1932 1410.12 1962.07"/><polygon class="b" points="1380.05 2202.62 1380.05 2232.69 1349.98 2202.62 1380.05 2202.62"/><polygon class="b" points="1380.05 2172.55 1380.05 2202.62 1349.98 2202.62 1380.05 2172.55"/><polygon class="b" points="1380.05 2112.41 1380.05 2172.55 1349.98 2202.62 1349.98 2112.41 1380.05 2112.41"/><rect class="b" x="1349.98" y="2082.34" width="30.07" height="30.07"/><rect class="b" x="1349.98" y="2052.28" width="30.07" height="30.06"/><polygon class="b" points="1380.05 1992.14 1380.05 2052.28 1349.98 2052.28 1349.98 1962.07 1380.05 1992.14"/><polygon class="b" points="1380.05 1962.07 1380.05 1992.14 1349.98 1962.07 1380.05 1962.07"/><rect class="b" x="1289.84" y="2082.34" width="60.14" height="30.07"/><rect class="b" x="1289.84" y="2052.28" width="60.14" height="30.06"/><polygon class="b" points="1289.84 2112.41 1289.84 2202.62 1259.77 2172.55 1259.77 2112.41 1289.84 2112.41"/><rect class="b" x="1259.77" y="2082.34" width="30.07" height="30.07"/><rect class="b" x="1259.77" y="2052.28" width="30.07" height="30.06"/><polygon class="b" points="1289.84 1962.07 1289.84 2052.28 1259.77 2052.28 1259.77 1992.14 1289.84 1962.07"/><polygon class="b" points="1289.84 1962.07 1259.77 1992.14 1259.77 1962.07 1289.84 1962.07"/><polygon class="b" points="1289.84 2202.62 1259.77 2232.69 1259.77 2202.62 1259.77 2172.55 1289.84 2202.62"/><polygon class="b" points="1289.84 1962.07 1259.77 1962.07 1259.77 1932 1289.84 1962.07"/><polygon class="b" points="1259.77 2202.62 1259.77 2232.69 1229.7 2202.62 1259.77 2202.62"/><polygon class="b" points="1259.77 2172.55 1259.77 2202.62 1229.7 2202.62 1259.77 2172.55"/><rect class="b" x="1229.7" y="2112.41" width="30.07" height="60.14"/><rect class="b" x="1229.7" y="2082.34" width="30.07" height="30.07"/><rect class="b" x="1229.7" y="2052.28" width="30.07" height="30.06"/><rect class="b" x="1229.7" y="1992.14" width="30.07" height="60.14"/><polygon class="b" points="1259.77 1962.07 1259.77 1992.14 1229.7 1962.07 1259.77 1962.07"/><polygon class="b" points="1259.77 1932 1259.77 1962.07 1229.7 1962.07 1259.77 1932"/><polygon class="b" points="1259.77 1932 1229.7 1962.07 1049.29 1962.07 1019.22 1932 1259.77 1932"/><polygon class="b" points="1259.77 2172.55 1229.7 2202.62 1229.7 2172.55 1259.77 2172.55"/><polygon class="b" points="1259.77 1992.14 1229.7 1992.14 1229.7 1962.07 1259.77 1992.14"/><polygon class="b" points="1259.77 2232.69 1019.22 2232.69 1049.29 2202.62 1229.7 2202.62 1259.77 2232.69"/><rect class="b" x="1049.29" y="2172.55" width="180.41" height="30.07"/><polygon class="b" points="1229.7 2082.34 1229.7 2112.41 1199.64 2112.41 1169.57 2082.34 1229.7 2082.34"/><polygon class="b" points="1229.7 2052.28 1229.7 2082.34 1169.57 2082.34 1199.64 2052.28 1229.7 2052.28"/><rect class="b" x="1049.29" y="1962.07" width="180.41" height="30.07"/><polygon class="b" points="1109.43 2082.34 1079.36 2112.41 1079.36 2082.34 1079.36 2052.28 1109.43 2082.34"/><polygon class="b" points="1079.36 2082.34 1079.36 2112.41 1049.29 2082.34 1079.36 2082.34"/><polygon class="b" points="1079.36 2052.28 1079.36 2082.34 1049.29 2082.34 1079.36 2052.28"/><polygon class="b" points="1079.36 2052.28 1049.29 2082.34 1049.29 2052.28 1079.36 2052.28"/><polygon class="b" points="1079.36 2112.41 1049.29 2112.41 1049.29 2082.34 1079.36 2112.41"/><rect class="b" x="1019.22" y="2172.55" width="30.07" height="30.07"/><rect class="b" x="1019.22" y="2112.41" width="30.07" height="60.14"/><rect class="b" x="1019.22" y="2082.34" width="30.07" height="30.07"/><rect class="b" x="1019.22" y="2052.28" width="30.07" height="30.06"/><rect class="b" x="1019.22" y="1992.14" width="30.07" height="60.14"/><polygon class="b" points="1049.29 1962.07 1049.29 1992.14 1019.22 1992.14 1049.29 1962.07"/><polygon class="b" points="1049.29 1962.07 1019.22 1992.14 1019.22 1962.07 1049.29 1962.07"/><polygon class="b" points="1049.29 2202.62 1019.22 2232.69 1019.22 2202.62 1049.29 2202.62"/><polygon class="b" points="1049.29 1962.07 1019.22 1962.07 989.15 1962.07 1019.22 1932 1049.29 1962.07"/><polygon class="b" points="1019.22 2202.62 1019.22 2232.69 989.15 2202.62 1019.22 2202.62"/><polygon class="b" points="1019.22 2172.55 1019.22 2202.62 989.15 2202.62 1019.22 2172.55"/><polygon class="b" points="1019.22 2112.41 1019.22 2172.55 989.15 2202.62 989.15 2112.41 1019.22 2112.41"/><rect class="b" x="989.15" y="2082.34" width="30.07" height="30.07"/><rect class="b" x="989.15" y="2052.28" width="30.07" height="30.06"/><polygon class="b" points="1019.22 1992.14 1019.22 2052.28 989.15 2052.28 989.15 1962.07 1019.22 1992.14"/><polygon class="b" points="1019.22 1962.07 1019.22 1992.14 989.15 1962.07 1019.22 1962.07"/><rect class="b" x="929.01" y="2082.34" width="60.14" height="30.07"/><rect class="b" x="929.01" y="2052.28" width="60.14" height="30.06"/><polygon class="b" points="929.01 2112.41 929.01 2202.62 898.95 2172.55 898.95 2112.41 929.01 2112.41"/><rect class="b" x="898.95" y="2082.34" width="30.06" height="30.07"/><rect class="b" x="898.95" y="2052.28" width="30.06" height="30.06"/><polygon class="b" points="929.01 1962.07 929.01 2052.28 898.95 2052.28 898.95 1992.14 929.01 1962.07"/><polygon class="b" points="898.95 1932 929.01 1962.07 898.95 1962.07 898.95 1932"/><polygon class="b" points="929.01 1962.07 898.95 1992.14 898.95 1962.07 929.01 1962.07"/><polygon class="b" points="898.95 2172.55 929.01 2202.62 898.95 2232.69 898.95 2202.62 898.95 2172.55"/><polygon class="b" points="898.95 2202.62 898.95 2232.69 868.88 2202.62 898.95 2202.62"/><polygon class="b" points="898.95 2172.55 898.95 2202.62 868.88 2202.62 898.95 2172.55"/><rect class="b" x="868.88" y="2112.41" width="30.07" height="60.14"/><rect class="b" x="868.88" y="2082.34" width="30.07" height="30.07"/><rect class="b" x="868.88" y="2052.28" width="30.07" height="30.06"/><rect class="b" x="868.88" y="1992.14" width="30.07" height="60.14"/><polygon class="b" points="898.95 1962.07 898.95 1992.14 868.88 1962.07 898.95 1962.07"/><polygon class="b" points="898.95 1932 898.95 1962.07 868.88 1962.07 898.95 1932"/><polygon class="b" points="898.95 1932 868.88 1962.07 688.46 1962.07 658.39 1932 898.95 1932"/><polygon class="b" points="898.95 2172.55 868.88 2202.62 868.88 2172.55 898.95 2172.55"/><polygon class="b" points="898.95 1992.14 868.88 1992.14 868.88 1962.07 898.95 1992.14"/><polygon class="b" points="898.95 2232.69 658.39 2232.69 688.46 2202.62 868.88 2202.62 898.95 2232.69"/><rect class="b" x="688.46" y="2172.55" width="180.42" height="30.07"/><polygon class="b" points="868.88 2082.34 868.88 2112.41 838.81 2112.41 808.74 2082.34 868.88 2082.34"/><polygon class="b" points="868.88 2052.28 868.88 2082.34 808.74 2082.34 838.81 2052.28 868.88 2052.28"/><rect class="b" x="688.46" y="1962.07" width="180.42" height="30.07"/><polygon class="b" points="748.6 2082.34 718.53 2112.41 718.53 2082.34 718.53 2052.28 748.6 2082.34"/><polygon class="b" points="718.53 2082.34 718.53 2112.41 688.46 2082.34 718.53 2082.34"/><polygon class="b" points="718.53 2052.28 718.53 2082.34 688.46 2082.34 718.53 2052.28"/><polygon class="b" points="718.53 2052.28 688.46 2082.34 688.46 2052.28 718.53 2052.28"/><polygon class="b" points="718.53 2112.41 688.46 2112.41 688.46 2082.34 718.53 2112.41"/><rect class="b" x="658.39" y="2172.55" width="30.07" height="30.07"/><rect class="b" x="658.39" y="2112.41" width="30.07" height="60.14"/><rect class="b" x="658.39" y="2082.34" width="30.07" height="30.07"/><rect class="b" x="658.39" y="2052.28" width="30.07" height="30.06"/><rect class="b" x="658.39" y="1992.14" width="30.07" height="60.14"/><polygon class="b" points="688.46 1962.07 688.46 1992.14 658.39 1992.14 688.46 1962.07"/><polygon class="b" points="688.46 1962.07 658.39 1992.14 658.39 1962.07 688.46 1962.07"/><polygon class="b" points="688.46 2202.62 658.39 2232.69 658.39 2202.62 688.46 2202.62"/><polygon class="b" points="688.46 1962.07 658.39 1962.07 628.33 1962.07 658.39 1932 688.46 1962.07"/><polygon class="b" points="658.39 2202.62 658.39 2232.69 628.33 2202.62 658.39 2202.62"/><polygon class="b" points="658.39 2172.55 658.39 2202.62 628.33 2202.62 658.39 2172.55"/><polygon class="b" points="658.39 2112.41 658.39 2172.55 628.33 2202.62 628.33 2112.41 658.39 2112.41"/><rect class="b" x="628.33" y="2082.34" width="30.06" height="30.07"/><rect class="b" x="628.33" y="2052.28" width="30.06" height="30.06"/><polygon class="b" points="658.39 1992.14 658.39 2052.28 628.33 2052.28 628.33 1962.07 658.39 1992.14"/><polygon class="b" points="658.39 1962.07 658.39 1992.14 628.33 1962.07 658.39 1962.07"/><polygon class="b" points="628.33 2082.34 628.33 2112.41 477.98 2112.41 447.91 2082.34 628.33 2082.34"/><polygon class="b" points="628.33 2052.28 628.33 2082.34 447.91 2082.34 477.98 2052.28 628.33 2052.28"/></g><g><line class="f" x1="1799.7" y1="2052.28" x2="1801.01" y2="2052.28"/><line class="f" x1="1801.01" y1="2112.41" x2="1799.7" y2="2112.41"/><polyline class="f" points="1800.36 2052.93 1801.01 2052.28 1831.08 2082.34 1801.01 2112.41 1800.36 2111.75"/><line class="f" x1="628.33" y1="2052.28" x2="628.33" y2="1962.07"/><line class="f" x1="628.33" y1="2202.62" x2="628.33" y2="2112.41"/><line class="f" x1="688.46" y1="2112.41" x2="688.46" y2="2172.55"/><line class="f" x1="688.46" y1="1992.14" x2="688.46" y2="2052.28"/><line class="f" x1="658.39" y1="2052.28" x2="658.39" y2="1992.14"/><line class="f" x1="658.39" y1="2172.55" x2="658.39" y2="2112.41"/><polyline class="f" points="628.33 1962.07 658.39 1932 898.95 1932"/><polyline class="f" points="868.88 1992.14 688.46 1992.14 658.39 1992.14 628.33 1962.07 658.39 1962.07 688.46 1962.07 868.88 1962.07"/><polyline class="f" points="628.33 2202.62 658.39 2172.55 688.46 2172.55 868.88 2172.55"/><polyline class="f" points="898.95 2232.69 658.39 2232.69 628.33 2202.62 658.39 2202.62 688.46 2202.62 868.88 2202.62"/><polyline class="f" points="868.88 2052.28 868.88 1992.14 868.88 1962.07"/><polyline class="f" points="898.95 2232.69 868.88 2202.62 868.88 2172.55 868.88 2112.41"/><polyline class="f" points="929.01 2112.41 929.01 2202.62 898.95 2232.69 898.95 2202.62 898.95 2172.55 898.95 2112.41"/><line class="f" x1="929.01" y1="1962.07" x2="929.01" y2="2052.28"/><line class="f" x1="898.95" y1="2052.28" x2="898.95" y2="1992.14"/><rect class="f" x="877.69" y="1940.81" width="42.52" height="42.52" transform="translate(-1124.1 1210.33) rotate(-45)"/><polyline class="f" points="447.91 2082.34 477.98 2052.28 628.33 2052.28 658.39 2052.28 688.46 2052.28 718.53 2052.28"/><polyline class="f" points="718.53 2112.41 688.46 2112.41 658.39 2112.41 628.33 2112.41 477.98 2112.41 447.91 2082.34 628.33 2082.34 658.39 2082.34 688.46 2082.34"/><rect class="f" x="697.27" y="2061.08" width="42.52" height="42.52" transform="translate(-1261.82 1117.65) rotate(-44.99)"/><line class="f" x1="989.15" y1="2052.28" x2="989.15" y2="1962.07"/><line class="f" x1="989.15" y1="2202.62" x2="989.15" y2="2112.41"/><line class="f" x1="1049.29" y1="2112.41" x2="1049.29" y2="2172.55"/><line class="f" x1="1049.29" y1="1992.14" x2="1049.29" y2="2052.28"/><line class="f" x1="1019.22" y1="2052.28" x2="1019.22" y2="1992.14"/><line class="f" x1="1019.22" y1="2172.55" x2="1019.22" y2="2112.41"/><polyline class="f" points="989.15 1962.07 1019.22 1932 1259.77 1932"/><polyline class="f" points="1229.7 1992.14 1049.29 1992.14 1019.22 1992.14 989.15 1962.07 1019.22 1962.07 1049.29 1962.07 1229.7 1962.07"/><polyline class="f" points="989.15 2202.62 1019.22 2172.55 1049.29 2172.55 1229.7 2172.55"/><polyline class="f" points="1259.77 2232.69 1019.22 2232.69 989.15 2202.62 1019.22 2202.62 1049.29 2202.62 1229.7 2202.62"/><polyline class="f" points="1229.7 2052.28 1229.7 1992.14 1229.7 1962.07"/><polyline class="f" points="1259.77 2232.69 1229.7 2202.62 1229.7 2172.55 1229.7 2112.41"/><polyline class="f" points="1289.84 2112.41 1289.84 2202.62 1259.77 2232.69 1259.77 2202.62 1259.77 2172.55 1259.77 2112.41"/><line class="f" x1="1289.84" y1="1962.07" x2="1289.84" y2="2052.28"/><line class="f" x1="1259.77" y1="2052.28" x2="1259.77" y2="1992.14"/><rect class="f" x="1238.51" y="1940.81" width="42.53" height="42.53" transform="translate(-1018.41 1465.47) rotate(-45)"/><polyline class="f" points="808.74 2082.34 838.81 2052.28 868.88 2052.28 898.95 2052.28 929.01 2052.28 989.15 2052.28 1019.22 2052.28 1049.29 2052.28 1079.36 2052.28"/><polyline class="f" points="1079.36 2112.41 1049.29 2112.41 1019.22 2112.41 989.15 2112.41 929.01 2112.41 898.95 2112.41 868.88 2112.41 838.81 2112.41 808.74 2082.34 868.88 2082.34 898.95 2082.34 929.01 2082.34 989.15 2082.34 1019.22 2082.34 1049.29 2082.34"/><rect class="f" x="1058.1" y="2061.08" width="42.52" height="42.52" transform="translate(-1156.18 1372.76) rotate(-44.99)"/><line class="f" x1="1349.98" y1="2052.28" x2="1349.98" y2="1962.07"/><line class="f" x1="1349.98" y1="2202.62" x2="1349.98" y2="2112.41"/><line class="f" x1="1410.12" y1="2112.41" x2="1410.12" y2="2172.55"/><line class="f" x1="1410.12" y1="1992.14" x2="1410.12" y2="2052.28"/><line class="f" x1="1380.05" y1="2052.28" x2="1380.05" y2="1992.14"/><line class="f" x1="1380.05" y1="2172.55" x2="1380.05" y2="2112.41"/><polyline class="f" points="1349.98 1962.07 1380.05 1932 1620.6 1932"/><polyline class="f" points="1590.53 1992.14 1410.12 1992.14 1380.05 1992.14 1349.98 1962.07 1380.05 1962.07 1410.12 1962.07 1590.53 1962.07"/><polyline class="f" points="1349.98 2202.62 1380.05 2172.55 1410.12 2172.55 1590.53 2172.55"/><polyline class="f" points="1620.6 2232.69 1380.05 2232.69 1349.98 2202.62 1380.05 2202.62 1410.12 2202.62 1590.53 2202.62"/><polyline class="f" points="1590.53 2052.28 1590.53 1992.14 1590.53 1962.07"/><polyline class="f" points="1620.6 2232.69 1590.53 2202.62 1590.53 2172.55 1590.53 2112.41"/><polyline class="f" points="1650.67 2112.41 1650.67 2202.62 1620.6 2232.69 1620.6 2202.62 1620.6 2172.55 1620.6 2112.41"/><line class="f" x1="1650.67" y1="1962.07" x2="1650.67" y2="2052.28"/><line class="f" x1="1620.6" y1="2052.28" x2="1620.6" y2="1992.14"/><rect class="f" x="1599.34" y="1940.81" width="42.53" height="42.53" transform="translate(-912.73 1720.62) rotate(-45)"/><polyline class="f" points="1169.57 2082.34 1199.64 2052.28 1229.7 2052.28 1259.77 2052.28 1289.84 2052.28 1349.98 2052.28 1380.05 2052.28 1410.12 2052.28 1440.19 2052.28"/><polyline class="f" points="1440.19 2112.41 1410.12 2112.41 1380.05 2112.41 1349.98 2112.41 1289.84 2112.41 1259.77 2112.41 1229.7 2112.41 1199.64 2112.41 1169.57 2082.34 1229.7 2082.34 1259.77 2082.34 1289.84 2082.34 1349.98 2082.34 1380.05 2082.34 1410.12 2082.34"/><rect class="f" x="1418.93" y="2061.08" width="42.52" height="42.52" transform="translate(-1050.54 1627.86) rotate(-44.99)"/><line class="f" x1="1709.5" y1="2052.28" x2="1709.5" y2="1962.07"/><line class="f" x1="1709.5" y1="2202.62" x2="1709.5" y2="2112.41"/><line class="f" x1="1769.64" y1="2112.41" x2="1769.64" y2="2172.55"/><line class="f" x1="1769.64" y1="1992.14" x2="1769.64" y2="2052.28"/><line class="f" x1="1739.57" y1="2052.28" x2="1739.57" y2="1992.14"/><line class="f" x1="1739.57" y1="2172.55" x2="1739.57" y2="2112.41"/><polyline class="f" points="1709.5 1962.07 1739.57 1932 1980.12 1932"/><polyline class="f" points="1980.12 1992.14 1769.64 1992.14 1739.57 1992.14 1709.5 1962.07 1739.57 1962.07 1769.64 1962.07 1950.05 1962.07"/><rect class="f" x="1958.86" y="1940.81" width="42.53" height="42.53" transform="translate(-807.43 1974.83) rotate(-45)"/><polyline class="f" points="1709.5 2202.62 1739.57 2172.55 1769.64 2172.55 1980.12 2172.55"/><polyline class="f" points="1980.12 2232.69 1739.57 2232.69 1709.5 2202.62 1739.57 2202.62 1769.64 2202.62 1950.05 2202.62"/><rect class="f" x="1958.86" y="2181.36" width="42.53" height="42.53" transform="translate(-977.52 2045.29) rotate(-45)"/><polyline class="f" points="1529.08 2082.34 1559.15 2052.28 1560.46 2052.28 1590.53 2052.28 1620.6 2052.28 1650.67 2052.28 1709.5 2052.28 1739.57 2052.28 1769.64 2052.28 1799.7 2052.28"/><polyline class="f" points="1799.7 2112.41 1769.64 2112.41 1739.57 2112.41 1709.5 2112.41 1650.67 2112.41 1620.6 2112.41 1590.53 2112.41 1560.46 2112.41 1559.15 2112.41 1529.08 2082.34 1530.39 2082.34 1590.53 2082.34 1620.6 2082.34 1650.67 2082.34 1709.5 2082.34 1739.57 2082.34 1769.64 2082.34"/><polygon class="f" points="1769.64 2082.34 1799.7 2052.28 1800.36 2052.93 1801.01 2053.59 1829.77 2082.34 1801.01 2111.1 1800.36 2111.75 1799.7 2112.41 1769.64 2082.34"/></g></g><g><g><polygon class="b" points="2010.19 1962.07 2010.19 2202.62 1980.12 2232.69 1980.12 1992.14 2010.19 1962.07"/><polygon class="b" points="2010.19 1962.07 1980.12 1992.14 1980.12 1962.07 2010.19 1962.07"/><polygon class="b" points="2010.19 1962.07 1980.12 1962.07 1950.05 1962.07 1980.12 1932 2010.19 1962.07"/><polygon class="b" points="1980.12 1992.14 1980.12 2232.69 1950.05 2202.62 1950.05 1962.07 1980.12 1992.14"/><polygon class="b" points="1980.12 1962.07 1980.12 1992.14 1950.05 1962.07 1980.12 1962.07"/></g><g><polyline class="f" points="1980.12 2232.69 1950.05 2202.62 1950.05 1962.07"/><polyline class="f" points="2010.19 1962.07 2010.19 2202.62 1980.12 2232.69 1980.12 1992.14"/><rect class="f" x="1958.86" y="1940.81" width="42.53" height="42.53" transform="translate(-807.43 1974.83) rotate(-45)"/></g></g><g><g><polygon class="b" points="2340.95 2202.62 2340.95 2232.69 2100.39 2232.69 2130.46 2202.62 2320.95 2202.62 2340.95 2202.62"/><polygon class="b" points="2340.95 1932 2310.88 1962.07 2070.33 1962.07 2100.39 1932 2340.95 1932"/><polygon class="b" points="2340.95 1992.14 2130.46 1992.14 2130.46 1977 2100.39 1977 2100.39 1992.14 2070.33 1962.07 2310.88 1962.07 2340.95 1992.14"/><rect class="b" x="2130.46" y="2172.55" width="190.49" height="30.07"/><polygon class="b" points="2190.6 2082.34 2160.53 2112.41 2160.53 2082.34 2160.53 2052.28 2190.6 2082.34"/><polygon class="b" points="2160.53 2082.34 2160.53 2112.41 2130.46 2082.34 2160.53 2082.34"/><polygon class="b" points="2160.53 2052.28 2160.53 2082.34 2130.46 2082.34 2160.53 2052.28"/><polygon class="b" points="2160.53 2052.28 2130.46 2082.34 2130.46 2052.28 2160.53 2052.28"/><polygon class="b" points="2160.53 2112.41 2130.46 2112.41 2130.46 2082.34 2160.53 2112.41"/><rect class="b" x="2100.39" y="2172.55" width="30.07" height="30.07"/><rect class="b" x="2100.39" y="2112.41" width="30.07" height="60.14"/><rect class="b" x="2100.39" y="2082.34" width="30.07" height="30.07"/><rect class="b" x="2100.39" y="2052.28" width="30.07" height="30.06"/><rect class="b" x="2100.39" y="1992.14" width="30.07" height="60.14"/><rect class="b" x="2100.39" y="1977" width="30.07" height="15.14"/><polygon class="b" points="2130.46 2202.62 2100.39 2232.69 2100.39 2202.62 2130.46 2202.62"/><polygon class="b" points="2100.39 2202.62 2100.39 2232.69 2070.33 2202.62 2100.39 2202.62"/><polygon class="b" points="2100.39 2172.55 2100.39 2202.62 2070.33 2202.62 2100.39 2172.55"/><polygon class="b" points="2100.39 2112.41 2100.39 2172.55 2070.33 2202.62 2070.33 2112.41 2100.39 2112.41"/><rect class="b" x="2070.33" y="2082.34" width="30.06" height="30.07"/><rect class="b" x="2070.33" y="2052.28" width="30.06" height="30.06"/><polygon class="b" points="2100.39 1992.14 2100.39 2052.28 2070.33 2052.28 2070.33 1962.07 2100.39 1992.14"/><polygon class="b" points="2070.33 2082.34 2070.33 2112.41 1919.98 2112.41 1889.91 2082.34 2070.33 2082.34"/><polygon class="b" points="2070.33 2052.28 2070.33 2082.34 1889.91 2082.34 1919.98 2052.28 2070.33 2052.28"/></g><g><line class="f" x1="2070.33" y1="2052.28" x2="2070.33" y2="1962.07"/><line class="f" x1="2070.33" y1="2202.62" x2="2070.33" y2="2112.41"/><line class="f" x1="2130.46" y1="2112.41" x2="2130.46" y2="2172.55"/><line class="f" x1="2130.46" y1="1992.14" x2="2130.46" y2="2052.28"/><line class="f" x1="2100.39" y1="2052.28" x2="2100.39" y2="1992.14"/><line class="f" x1="2100.39" y1="2172.55" x2="2100.39" y2="2112.41"/><polyline class="f" points="2070.33 1962.07 2100.39 1932 2340.95 1932 2310.88 1962.07"/><polyline class="f" points="2340.95 1992.14 2130.46 1992.14 2100.39 1992.14 2070.33 1962.07 2310.88 1962.07"/><polyline class="f" points="2070.33 2202.62 2100.39 2172.55 2130.46 2172.55 2320.95 2172.55 2320.95 2202.62"/><polyline class="f" points="2070.33 2202.62 2100.39 2202.62 2130.46 2202.62 2320.95 2202.62"/><line class="f" x1="2310.88" y1="1962.07" x2="2340.95" y2="1992.14"/><line class="f" x1="2371.01" y1="2202.62" x2="2340.95" y2="2232.69"/><polyline class="f" points="1889.91 2082.34 1919.98 2052.28 2070.33 2052.28 2100.39 2052.28 2130.46 2052.28 2160.53 2052.28"/><polyline class="f" points="2160.53 2112.41 2130.46 2112.41 2100.39 2112.41 2070.33 2112.41 1919.98 2112.41 1889.91 2082.34 2070.33 2082.34 2100.39 2082.34 2130.46 2082.34"/><rect class="f" x="2139.27" y="2061.08" width="42.52" height="42.52" transform="translate(-839.64 2137.13) rotate(-44.99)"/></g></g><g><g><polygon class="b" points="2552.09 2082.34 2522.02 2112.41 2522.02 2082.34 2522.02 2052.28 2552.09 2082.34"/><polygon class="b" points="2522.02 2082.34 2522.02 2112.41 2491.95 2082.34 2522.02 2082.34"/><polygon class="b" points="2522.02 2052.28 2522.02 2082.34 2491.95 2082.34 2522.02 2052.28"/><polygon class="b" points="2522.02 2052.28 2491.95 2082.34 2371.67 2082.34 2371.67 2052.28 2522.02 2052.28"/><polygon class="b" points="2522.02 2112.41 2371.67 2112.41 2371.67 2082.34 2491.95 2082.34 2522.02 2112.41"/><polygon class="b" points="2371.67 2112.41 2371.67 2202.62 2341.61 2172.55 2341.61 2112.41 2371.67 2112.41"/><rect class="b" x="2341.61" y="2082.34" width="30.06" height="30.07"/><rect class="b" x="2341.61" y="2052.28" width="30.06" height="30.06"/><polygon class="b" points="2371.67 1962.07 2371.67 2052.28 2341.61 2052.28 2341.61 1992.14 2371.67 1962.07"/><polygon class="b" points="2341.61 1932 2371.67 1962.07 2341.61 1962.07 2341.61 1932"/><polygon class="b" points="2371.67 1962.07 2341.61 1992.14 2341.61 1962.07 2371.67 1962.07"/><polygon class="b" points="2341.61 2172.55 2371.67 2202.62 2341.61 2232.69 2341.61 2202.62 2341.61 2172.55"/><polygon class="b" points="2341.61 2202.62 2341.61 2232.69 2311.54 2202.62 2341.61 2202.62"/><polygon class="b" points="2341.61 2172.55 2341.61 2202.62 2311.54 2202.62 2341.61 2172.55"/><rect class="b" x="2311.54" y="2112.41" width="30.07" height="60.14"/><rect class="b" x="2311.54" y="2082.34" width="30.07" height="30.07"/><rect class="b" x="2311.54" y="2052.28" width="30.07" height="30.06"/><rect class="b" x="2311.54" y="1992.14" width="30.07" height="60.14"/><polygon class="b" points="2341.61 1962.07 2341.61 1992.14 2311.54 1962.07 2341.61 1962.07"/><polygon class="b" points="2341.61 1932 2341.61 1962.07 2311.54 1962.07 2341.61 1932"/><polygon class="b" points="2341.61 1932 2311.54 1962.07 2131.12 1962.07 2101.05 1932 2341.61 1932"/><polygon class="b" points="2341.61 2172.55 2311.54 2202.62 2311.54 2172.55 2341.61 2172.55"/><polygon class="b" points="2341.61 1992.14 2311.54 1992.14 2311.54 1962.07 2341.61 1992.14"/><polygon class="b" points="2341.61 2232.69 2101.05 2232.69 2131.12 2202.62 2311.54 2202.62 2341.61 2232.69"/><rect class="b" x="2131.12" y="2172.55" width="180.42" height="30.07"/><polygon class="b" points="2311.54 2082.34 2311.54 2112.41 2281.47 2112.41 2251.4 2082.34 2311.54 2082.34"/><polygon class="b" points="2311.54 2052.28 2311.54 2082.34 2251.4 2082.34 2281.47 2052.28 2311.54 2052.28"/><rect class="b" x="2131.12" y="1962.07" width="180.42" height="30.07"/><polygon class="b" points="2191.26 2082.34 2161.19 2112.41 2161.19 2082.34 2161.19 2052.28 2191.26 2082.34"/><polygon class="b" points="2161.19 2082.34 2161.19 2112.41 2131.12 2082.34 2161.19 2082.34"/><polygon class="b" points="2161.19 2052.28 2161.19 2082.34 2131.12 2082.34 2161.19 2052.28"/><polygon class="b" points="2161.19 2052.28 2131.12 2082.34 2131.12 2052.28 2161.19 2052.28"/><polygon class="b" points="2161.19 2112.41 2131.12 2112.41 2131.12 2082.34 2161.19 2112.41"/><rect class="b" x="2101.05" y="2172.55" width="30.07" height="30.07"/><rect class="b" x="2101.05" y="2112.41" width="30.07" height="60.14"/><rect class="b" x="2101.05" y="2082.34" width="30.07" height="30.07"/><rect class="b" x="2101.05" y="2052.28" width="30.07" height="30.06"/><rect class="b" x="2101.05" y="1992.14" width="30.07" height="60.14"/><polygon class="b" points="2131.12 1962.07 2131.12 1992.14 2101.05 1992.14 2131.12 1962.07"/><polygon class="b" points="2131.12 1962.07 2101.05 1992.14 2101.05 1962.07 2131.12 1962.07"/><polygon class="b" points="2131.12 2202.62 2101.05 2232.69 2101.05 2202.62 2131.12 2202.62"/><polygon class="b" points="2131.12 1962.07 2101.05 1962.07 2070.99 1962.07 2101.05 1932 2131.12 1962.07"/><polygon class="b" points="2101.05 2202.62 2101.05 2232.69 2070.99 2202.62 2101.05 2202.62"/><polygon class="b" points="2101.05 2172.55 2101.05 2202.62 2070.99 2202.62 2101.05 2172.55"/><polygon class="b" points="2101.05 2112.41 2101.05 2172.55 2070.99 2202.62 2070.99 2112.41 2101.05 2112.41"/><rect class="b" x="2070.99" y="2082.34" width="30.06" height="30.07"/><rect class="b" x="2070.99" y="2052.28" width="30.06" height="30.06"/><polygon class="b" points="2101.05 1992.14 2101.05 2052.28 2070.99 2052.28 2070.99 1962.07 2101.05 1992.14"/><polygon class="b" points="2101.05 1962.07 2101.05 1992.14 2070.99 1962.07 2101.05 1962.07"/><polygon class="b" points="2070.99 2082.34 2070.99 2112.41 1920.64 2112.41 1890.57 2082.34 2070.99 2082.34"/><polygon class="b" points="2070.99 2052.28 2070.99 2082.34 1890.57 2082.34 1920.64 2052.28 2070.99 2052.28"/></g><g><line class="f" x1="2070.99" y1="2052.28" x2="2070.99" y2="1962.07"/><line class="f" x1="2070.99" y1="2202.62" x2="2070.99" y2="2112.41"/><line class="f" x1="2131.12" y1="2112.41" x2="2131.12" y2="2172.55"/><line class="f" x1="2131.12" y1="1992.14" x2="2131.12" y2="2052.28"/><line class="f" x1="2101.05" y1="2052.28" x2="2101.05" y2="1992.14"/><line class="f" x1="2101.05" y1="2172.55" x2="2101.05" y2="2112.41"/><polyline class="f" points="2070.99 1962.07 2101.05 1932 2341.61 1932"/><polyline class="f" points="2311.54 1992.14 2131.12 1992.14 2101.05 1992.14 2070.99 1962.07 2101.05 1962.07"/><line class="f" x1="2131.12" y1="1962.07" x2="2311.54" y2="1962.07"/><polyline class="f" points="2070.99 2202.62 2101.05 2172.55 2131.12 2172.55 2311.54 2172.55"/><polyline class="f" points="2341.61 2232.69 2101.05 2232.69 2070.99 2202.62 2101.05 2202.62 2131.12 2202.62 2311.54 2202.62"/><polyline class="f" points="2311.54 2052.28 2311.54 1992.14 2311.54 1962.07"/><polyline class="f" points="2341.61 2232.69 2311.54 2202.62 2311.54 2172.55 2311.54 2112.41"/><polyline class="f" points="2371.67 2112.41 2371.67 2202.62 2341.61 2232.69 2341.61 2202.62"/><line class="f" x1="2371.67" y1="1962.07" x2="2371.67" y2="2052.28"/><line class="f" x1="2341.61" y1="2052.28" x2="2341.61" y2="1992.14"/><line class="f" x1="2341.61" y1="2172.55" x2="2341.61" y2="2112.41"/><rect class="f" x="2320.34" y="1940.81" width="42.52" height="42.52" transform="translate(-701.55 2230.44) rotate(-45)"/><polyline class="f" points="1890.57 2082.34 1920.64 2052.28 2070.99 2052.28 2101.05 2052.28 2131.12 2052.28 2161.19 2052.28"/><polyline class="f" points="2161.19 2112.41 2131.12 2112.41 2101.05 2112.41 2070.99 2112.41 1920.64 2112.41 1890.57 2082.34 2070.99 2082.34 2101.05 2082.34 2131.12 2082.34"/><rect class="f" x="2139.93" y="2061.08" width="42.52" height="42.52" transform="translate(-839.45 2137.6) rotate(-44.99)"/><polyline class="f" points="2251.4 2082.34 2281.47 2052.28 2311.54 2052.28 2341.61 2052.28 2371.67 2052.28 2522.02 2052.28"/><polyline class="f" points="2522.02 2112.41 2371.67 2112.41 2341.61 2112.41 2311.54 2112.41 2281.47 2112.41 2251.4 2082.34 2311.54 2082.34 2341.61 2082.34 2371.67 2082.34 2491.95 2082.34"/><rect class="f" x="2500.76" y="2061.08" width="42.52" height="42.52" transform="translate(-733.81 2392.7) rotate(-44.99)"/></g></g><g><g><polygon class="b" points="2371.02 1962.07 2371.02 2202.62 2340.95 2232.69 2340.95 1992.14 2371.02 1962.07"/><polygon class="b" points="2371.02 1962.07 2340.95 1992.14 2340.95 1962.07 2371.02 1962.07"/><polygon class="b" points="2371.02 1962.07 2340.95 1962.07 2310.88 1962.07 2340.95 1932 2371.02 1962.07"/><polygon class="b" points="2340.95 1992.14 2340.95 2232.69 2310.88 2202.62 2310.88 1962.07 2340.95 1992.14"/><polygon class="b" points="2340.95 1962.07 2340.95 1992.14 2310.88 1962.07 2340.95 1962.07"/></g><g><polyline class="f" points="2340.95 2232.69 2310.88 2202.62 2310.88 1962.07"/><polyline class="f" points="2371.02 1962.07 2371.02 2202.62 2340.95 2232.69 2340.95 1992.14"/><rect class="f" x="2319.69" y="1940.81" width="42.53" height="42.53" transform="translate(-701.74 2229.98) rotate(-45)"/></g></g></g><g><g><g><polygon class="b" points="2010.19 797.38 1980.12 827.45 1980.12 797.38 1980.12 767.31 2010.19 797.38"/><polygon class="b" points="2010.19 1037.93 1980.12 1068 1980.12 1037.93 1980.12 1007.86 2010.19 1037.93"/><polygon class="b" points="1980.12 1037.93 1980.12 1068 1950.05 1037.93 1980.12 1037.93"/><polygon class="b" points="1980.12 1007.86 1980.12 1037.93 1950.05 1037.93 1980.12 1007.86"/><polygon class="b" points="1980.12 797.38 1980.12 827.45 1950.05 797.38 1980.12 797.38"/><polygon class="b" points="1980.12 767.31 1980.12 797.38 1950.05 797.38 1980.12 767.31"/><polygon class="b" points="1980.12 767.31 1950.05 797.38 1769.64 797.38 1739.57 767.31 1980.12 767.31"/><polygon class="b" points="1980.12 1007.86 1950.05 1037.93 1769.64 1037.93 1769.64 1007.86 1980.12 1007.86"/><polygon class="b" points="1980.12 827.45 1769.64 827.45 1769.64 797.38 1950.05 797.38 1980.12 827.45"/><polygon class="b" points="1980.12 1068 1739.57 1068 1769.64 1037.93 1950.05 1037.93 1980.12 1068"/><polygon class="b" points="1831.08 917.65 1801.01 947.72 1801.01 946.41 1829.77 917.65 1801.01 888.9 1801.01 887.59 1831.08 917.65"/><polygon class="b" points="1829.77 917.65 1801.01 946.41 1801.01 917.65 1801.01 888.9 1829.77 917.65"/><polygon class="b" points="1801.01 946.41 1801.01 947.72 1800.36 947.06 1801.01 946.41"/><polygon class="b" points="1801.01 917.65 1801.01 946.41 1800.36 947.06 1799.7 946.41 1799.7 917.65 1801.01 917.65"/><polygon class="b" points="1801.01 888.9 1801.01 917.65 1799.7 917.65 1799.7 888.9 1800.36 888.24 1801.01 888.9"/><polygon class="b" points="1801.01 887.59 1801.01 888.9 1800.36 888.24 1801.01 887.59"/><polygon class="b" points="1801.01 887.59 1800.36 888.24 1799.7 887.59 1801.01 887.59"/><polygon class="b" points="1800.36 947.06 1801.01 947.72 1799.7 947.72 1800.36 947.06"/><polygon class="b" points="1800.36 947.06 1799.7 947.72 1799.7 946.41 1800.36 947.06"/><polygon class="b" points="1800.36 888.24 1799.7 888.9 1799.7 887.59 1800.36 888.24"/><polygon class="b" points="1799.7 946.41 1799.7 947.72 1769.64 917.65 1770.95 917.65 1799.7 946.41"/><polygon class="b" points="1799.7 917.65 1799.7 946.41 1770.95 917.65 1799.7 917.65"/><polygon class="b" points="1799.7 888.9 1799.7 917.65 1770.95 917.65 1799.7 888.9"/><polygon class="b" points="1799.7 887.59 1799.7 888.9 1770.95 917.65 1769.64 917.65 1799.7 887.59"/><polygon class="b" points="1799.7 887.59 1769.64 917.65 1769.64 887.59 1799.7 887.59"/><polygon class="b" points="1769.64 917.65 1799.7 947.72 1769.64 947.72 1769.64 917.65"/><rect class="b" x="1739.57" y="1007.86" width="30.07" height="30.07"/><rect class="b" x="1739.57" y="947.72" width="30.07" height="60.14"/><rect class="b" x="1739.57" y="917.65" width="30.07" height="30.07"/><rect class="b" x="1739.57" y="887.59" width="30.07" height="30.06"/><rect class="b" x="1739.57" y="827.45" width="30.07" height="60.14"/><polygon class="b" points="1769.64 797.38 1769.64 827.45 1739.57 827.45 1769.64 797.38"/><polygon class="b" points="1769.64 797.38 1739.57 827.45 1739.57 797.38 1769.64 797.38"/><polygon class="b" points="1769.64 1037.93 1739.57 1068 1739.57 1037.93 1769.64 1037.93"/><polygon class="b" points="1769.64 797.38 1739.57 797.38 1709.5 797.38 1739.57 767.31 1769.64 797.38"/><polygon class="b" points="1739.57 1037.93 1739.57 1068 1709.5 1037.93 1739.57 1037.93"/><polygon class="b" points="1739.57 1007.86 1739.57 1037.93 1709.5 1037.93 1739.57 1007.86"/><polygon class="b" points="1739.57 947.72 1739.57 1007.86 1709.5 1037.93 1709.5 947.72 1739.57 947.72"/><rect class="b" x="1709.5" y="917.65" width="30.07" height="30.07"/><rect class="b" x="1709.5" y="887.59" width="30.07" height="30.06"/><polygon class="b" points="1739.57 827.45 1739.57 887.59 1709.5 887.59 1709.5 797.38 1739.57 827.45"/><polygon class="b" points="1739.57 797.38 1739.57 827.45 1709.5 797.38 1739.57 797.38"/><rect class="b" x="1650.67" y="917.65" width="58.83" height="30.07"/><rect class="b" x="1650.67" y="887.59" width="58.83" height="30.06"/><polygon class="b" points="1650.67 947.72 1650.67 1037.93 1620.6 1007.86 1620.6 947.72 1650.67 947.72"/><rect class="b" x="1620.6" y="917.65" width="30.07" height="30.07"/><rect class="b" x="1620.6" y="887.59" width="30.07" height="30.06"/><polygon class="b" points="1650.67 797.38 1650.67 887.59 1620.6 887.59 1620.6 827.45 1650.67 797.38"/><polygon class="b" points="1650.67 797.38 1620.6 827.45 1620.6 797.38 1650.67 797.38"/><polygon class="b" points="1650.67 1037.93 1620.6 1068 1620.6 1037.93 1620.6 1007.86 1650.67 1037.93"/><polygon class="b" points="1650.67 797.38 1620.6 797.38 1620.6 767.31 1650.67 797.38"/><polygon class="b" points="1620.6 1037.93 1620.6 1068 1590.53 1037.93 1620.6 1037.93"/><polygon class="b" points="1620.6 1007.86 1620.6 1037.93 1590.53 1037.93 1620.6 1007.86"/><rect class="b" x="1590.53" y="947.72" width="30.07" height="60.14"/><rect class="b" x="1590.53" y="917.65" width="30.07" height="30.07"/><rect class="b" x="1590.53" y="887.59" width="30.07" height="30.06"/><rect class="b" x="1590.53" y="827.45" width="30.07" height="60.14"/><polygon class="b" points="1620.6 797.38 1620.6 827.45 1590.53 797.38 1620.6 797.38"/><polygon class="b" points="1620.6 767.31 1620.6 797.38 1590.53 797.38 1620.6 767.31"/><polygon class="b" points="1620.6 767.31 1590.53 797.38 1410.12 797.38 1380.05 767.31 1620.6 767.31"/><polygon class="b" points="1620.6 1007.86 1590.53 1037.93 1590.53 1007.86 1620.6 1007.86"/><polygon class="b" points="1620.6 827.45 1590.53 827.45 1590.53 797.38 1620.6 827.45"/><polygon class="b" points="1620.6 1068 1380.05 1068 1410.12 1037.93 1590.53 1037.93 1620.6 1068"/><rect class="b" x="1410.12" y="1007.86" width="180.41" height="30.07"/><polygon class="b" points="1590.53 917.65 1590.53 947.72 1560.46 947.72 1530.39 917.65 1590.53 917.65"/><polygon class="b" points="1590.53 887.59 1590.53 917.65 1530.39 917.65 1560.46 887.59 1590.53 887.59"/><rect class="b" x="1410.12" y="797.38" width="180.41" height="30.07"/><polygon class="b" points="1560.46 887.59 1530.39 917.65 1529.08 917.65 1559.15 887.59 1560.46 887.59"/><polygon class="b" points="1560.46 947.72 1559.15 947.72 1529.08 917.65 1530.39 917.65 1560.46 947.72"/><polygon class="b" points="1470.26 917.65 1440.19 947.72 1440.19 917.65 1440.19 887.59 1470.26 917.65"/><polygon class="b" points="1440.19 917.65 1440.19 947.72 1410.12 917.65 1440.19 917.65"/><polygon class="b" points="1440.19 887.59 1440.19 917.65 1410.12 917.65 1440.19 887.59"/><polygon class="b" points="1440.19 887.59 1410.12 917.65 1410.12 887.59 1440.19 887.59"/><polygon class="b" points="1440.19 947.72 1410.12 947.72 1410.12 917.65 1440.19 947.72"/><rect class="b" x="1380.05" y="1007.86" width="30.07" height="30.07"/><rect class="b" x="1380.05" y="947.72" width="30.07" height="60.14"/><rect class="b" x="1380.05" y="917.65" width="30.07" height="30.07"/><rect class="b" x="1380.05" y="887.59" width="30.07" height="30.06"/><rect class="b" x="1380.05" y="827.45" width="30.07" height="60.14"/><polygon class="b" points="1410.12 797.38 1410.12 827.45 1380.05 827.45 1410.12 797.38"/><polygon class="b" points="1410.12 797.38 1380.05 827.45 1380.05 797.38 1410.12 797.38"/><polygon class="b" points="1410.12 1037.93 1380.05 1068 1380.05 1037.93 1410.12 1037.93"/><polygon class="b" points="1410.12 797.38 1380.05 797.38 1349.98 797.38 1380.05 767.31 1410.12 797.38"/><polygon class="b" points="1380.05 1037.93 1380.05 1068 1349.98 1037.93 1380.05 1037.93"/><polygon class="b" points="1380.05 1007.86 1380.05 1037.93 1349.98 1037.93 1380.05 1007.86"/><polygon class="b" points="1380.05 947.72 1380.05 1007.86 1349.98 1037.93 1349.98 947.72 1380.05 947.72"/><rect class="b" x="1349.98" y="917.65" width="30.07" height="30.07"/><rect class="b" x="1349.98" y="887.59" width="30.07" height="30.06"/><polygon class="b" points="1380.05 827.45 1380.05 887.59 1349.98 887.59 1349.98 797.38 1380.05 827.45"/><polygon class="b" points="1380.05 797.38 1380.05 827.45 1349.98 797.38 1380.05 797.38"/><rect class="b" x="1289.84" y="917.65" width="60.14" height="30.07"/><rect class="b" x="1289.84" y="887.59" width="60.14" height="30.06"/><polygon class="b" points="1289.84 947.72 1289.84 1037.93 1259.77 1007.86 1259.77 947.72 1289.84 947.72"/><rect class="b" x="1259.77" y="917.65" width="30.07" height="30.07"/><rect class="b" x="1259.77" y="887.59" width="30.07" height="30.06"/><polygon class="b" points="1289.84 797.38 1289.84 887.59 1259.77 887.59 1259.77 827.45 1289.84 797.38"/><polygon class="b" points="1289.84 797.38 1259.77 827.45 1259.77 797.38 1289.84 797.38"/><polygon class="b" points="1289.84 1037.93 1259.77 1068 1259.77 1037.93 1259.77 1007.86 1289.84 1037.93"/><polygon class="b" points="1289.84 797.38 1259.77 797.38 1259.77 767.31 1289.84 797.38"/><polygon class="b" points="1259.77 1037.93 1259.77 1068 1229.7 1037.93 1259.77 1037.93"/><polygon class="b" points="1259.77 1007.86 1259.77 1037.93 1229.7 1037.93 1259.77 1007.86"/><rect class="b" x="1229.7" y="947.72" width="30.07" height="60.14"/><rect class="b" x="1229.7" y="917.65" width="30.07" height="30.07"/><rect class="b" x="1229.7" y="887.59" width="30.07" height="30.06"/><rect class="b" x="1229.7" y="827.45" width="30.07" height="60.14"/><polygon class="b" points="1259.77 797.38 1259.77 827.45 1229.7 797.38 1259.77 797.38"/><polygon class="b" points="1259.77 767.31 1259.77 797.38 1229.7 797.38 1259.77 767.31"/><polygon class="b" points="1259.77 767.31 1229.7 797.38 1049.29 797.38 1019.22 767.31 1259.77 767.31"/><polygon class="b" points="1259.77 1007.86 1229.7 1037.93 1229.7 1007.86 1259.77 1007.86"/><polygon class="b" points="1259.77 827.45 1229.7 827.45 1229.7 797.38 1259.77 827.45"/><polygon class="b" points="1259.77 1068 1019.22 1068 1049.29 1037.93 1229.7 1037.93 1259.77 1068"/><rect class="b" x="1049.29" y="1007.86" width="180.41" height="30.07"/><polygon class="b" points="1229.7 917.65 1229.7 947.72 1199.64 947.72 1169.57 917.65 1229.7 917.65"/><polygon class="b" points="1229.7 887.59 1229.7 917.65 1169.57 917.65 1199.64 887.59 1229.7 887.59"/><rect class="b" x="1049.29" y="797.38" width="180.41" height="30.07"/><polygon class="b" points="1109.43 917.65 1079.36 947.72 1079.36 917.65 1079.36 887.59 1109.43 917.65"/><polygon class="b" points="1079.36 917.65 1079.36 947.72 1049.29 917.65 1079.36 917.65"/><polygon class="b" points="1079.36 887.59 1079.36 917.65 1049.29 917.65 1079.36 887.59"/><polygon class="b" points="1079.36 887.59 1049.29 917.65 1049.29 887.59 1079.36 887.59"/><polygon class="b" points="1079.36 947.72 1049.29 947.72 1049.29 917.65 1079.36 947.72"/><rect class="b" x="1019.22" y="1007.86" width="30.07" height="30.07"/><rect class="b" x="1019.22" y="947.72" width="30.07" height="60.14"/><rect class="b" x="1019.22" y="917.65" width="30.07" height="30.07"/><rect class="b" x="1019.22" y="887.59" width="30.07" height="30.06"/><rect class="b" x="1019.22" y="827.45" width="30.07" height="60.14"/><polygon class="b" points="1049.29 797.38 1049.29 827.45 1019.22 827.45 1049.29 797.38"/><polygon class="b" points="1049.29 797.38 1019.22 827.45 1019.22 797.38 1049.29 797.38"/><polygon class="b" points="1049.29 1037.93 1019.22 1068 1019.22 1037.93 1049.29 1037.93"/><polygon class="b" points="1049.29 797.38 1019.22 797.38 989.15 797.38 1019.22 767.31 1049.29 797.38"/><polygon class="b" points="1019.22 1037.93 1019.22 1068 989.15 1037.93 1019.22 1037.93"/><polygon class="b" points="1019.22 1007.86 1019.22 1037.93 989.15 1037.93 1019.22 1007.86"/><polygon class="b" points="1019.22 947.72 1019.22 1007.86 989.15 1037.93 989.15 947.72 1019.22 947.72"/><rect class="b" x="989.15" y="917.65" width="30.07" height="30.07"/><rect class="b" x="989.15" y="887.59" width="30.07" height="30.06"/><polygon class="b" points="1019.22 827.45 1019.22 887.59 989.15 887.59 989.15 797.38 1019.22 827.45"/><polygon class="b" points="1019.22 797.38 1019.22 827.45 989.15 797.38 1019.22 797.38"/><rect class="b" x="929.01" y="917.65" width="60.14" height="30.07"/><rect class="b" x="929.01" y="887.59" width="60.14" height="30.06"/><polygon class="b" points="929.01 947.72 929.01 1037.93 898.95 1007.86 898.95 947.72 929.01 947.72"/><rect class="b" x="898.95" y="917.65" width="30.06" height="30.07"/><rect class="b" x="898.95" y="887.59" width="30.06" height="30.06"/><polygon class="b" points="929.01 797.38 929.01 887.59 898.95 887.59 898.95 827.45 929.01 797.38"/><polygon class="b" points="898.95 767.31 929.01 797.38 898.95 797.38 898.95 767.31"/><polygon class="b" points="929.01 797.38 898.95 827.45 898.95 797.38 929.01 797.38"/><polygon class="b" points="898.95 1007.86 929.01 1037.93 898.95 1068 898.95 1037.93 898.95 1007.86"/><polygon class="b" points="898.95 1037.93 898.95 1068 868.88 1037.93 898.95 1037.93"/><polygon class="b" points="898.95 1007.86 898.95 1037.93 868.88 1037.93 898.95 1007.86"/><rect class="b" x="868.88" y="947.72" width="30.07" height="60.14"/><rect class="b" x="868.88" y="917.65" width="30.07" height="30.07"/><rect class="b" x="868.88" y="887.59" width="30.07" height="30.06"/><rect class="b" x="868.88" y="827.45" width="30.07" height="60.14"/><polygon class="b" points="898.95 797.38 898.95 827.45 868.88 797.38 898.95 797.38"/><polygon class="b" points="898.95 767.31 898.95 797.38 868.88 797.38 898.95 767.31"/><polygon class="b" points="898.95 767.31 868.88 797.38 688.46 797.38 658.39 767.31 898.95 767.31"/><polygon class="b" points="898.95 1007.86 868.88 1037.93 868.88 1007.86 898.95 1007.86"/><polygon class="b" points="898.95 827.45 868.88 827.45 868.88 797.38 898.95 827.45"/><polygon class="b" points="898.95 1068 658.39 1068 688.46 1037.93 868.88 1037.93 898.95 1068"/><rect class="b" x="688.46" y="1007.86" width="180.42" height="30.07"/><polygon class="b" points="868.88 917.65 868.88 947.72 838.81 947.72 808.74 917.65 868.88 917.65"/><polygon class="b" points="868.88 887.59 868.88 917.65 808.74 917.65 838.81 887.59 868.88 887.59"/><rect class="b" x="688.46" y="797.38" width="180.42" height="30.07"/><polygon class="b" points="748.6 917.65 718.53 947.72 718.53 917.65 718.53 887.59 748.6 917.65"/><polygon class="b" points="718.53 917.65 718.53 947.72 688.46 917.65 718.53 917.65"/><polygon class="b" points="718.53 887.59 718.53 917.65 688.46 917.65 718.53 887.59"/><polygon class="b" points="718.53 887.59 688.46 917.65 688.46 887.59 718.53 887.59"/><polygon class="b" points="718.53 947.72 688.46 947.72 688.46 917.65 718.53 947.72"/><rect class="b" x="658.39" y="1007.86" width="30.07" height="30.07"/><rect class="b" x="658.39" y="947.72" width="30.07" height="60.14"/><rect class="b" x="658.39" y="917.65" width="30.07" height="30.07"/><rect class="b" x="658.39" y="887.59" width="30.07" height="30.06"/><rect class="b" x="658.39" y="827.45" width="30.07" height="60.14"/><polygon class="b" points="688.46 797.38 688.46 827.45 658.39 827.45 688.46 797.38"/><polygon class="b" points="688.46 797.38 658.39 827.45 658.39 797.38 688.46 797.38"/><polygon class="b" points="688.46 1037.93 658.39 1068 658.39 1037.93 688.46 1037.93"/><polygon class="b" points="688.46 797.38 658.39 797.38 628.33 797.38 658.39 767.31 688.46 797.38"/><polygon class="b" points="658.39 1037.93 658.39 1068 628.33 1037.93 658.39 1037.93"/><polygon class="b" points="658.39 1007.86 658.39 1037.93 628.33 1037.93 658.39 1007.86"/><polygon class="b" points="658.39 947.72 658.39 1007.86 628.33 1037.93 628.33 947.72 658.39 947.72"/><rect class="b" x="628.33" y="917.65" width="30.06" height="30.07"/><rect class="b" x="628.33" y="887.59" width="30.06" height="30.06"/><polygon class="b" points="658.39 827.45 658.39 887.59 628.33 887.59 628.33 797.38 658.39 827.45"/><polygon class="b" points="658.39 797.38 658.39 827.45 628.33 797.38 658.39 797.38"/><polygon class="b" points="628.33 917.65 628.33 947.72 477.98 947.72 447.91 917.65 628.33 917.65"/><polygon class="b" points="628.33 887.59 628.33 917.65 447.91 917.65 477.98 887.59 628.33 887.59"/></g><g><line class="f" x1="1799.7" y1="887.59" x2="1801.01" y2="887.59"/><line class="f" x1="1801.01" y1="947.72" x2="1799.7" y2="947.72"/><polyline class="f" points="1800.36 888.24 1801.01 887.59 1831.08 917.65 1801.01 947.72 1800.36 947.06"/><line class="f" x1="628.33" y1="887.59" x2="628.33" y2="797.38"/><line class="f" x1="628.33" y1="1037.93" x2="628.33" y2="947.72"/><line class="f" x1="688.46" y1="947.72" x2="688.46" y2="1007.86"/><line class="f" x1="688.46" y1="827.45" x2="688.46" y2="887.59"/><line class="f" x1="658.39" y1="887.59" x2="658.39" y2="827.45"/><line class="f" x1="658.39" y1="1007.86" x2="658.39" y2="947.72"/><polyline class="f" points="628.33 797.38 658.39 767.31 898.95 767.31"/><polyline class="f" points="868.88 827.45 688.46 827.45 658.39 827.45 628.33 797.38 658.39 797.38 688.46 797.38 868.88 797.38"/><polyline class="f" points="628.33 1037.93 658.39 1007.86 688.46 1007.86 868.88 1007.86"/><polyline class="f" points="898.95 1068 658.39 1068 628.33 1037.93 658.39 1037.93 688.46 1037.93 868.88 1037.93"/><polyline class="f" points="868.88 887.59 868.88 827.45 868.88 797.38"/><polyline class="f" points="898.95 1068 868.88 1037.93 868.88 1007.86 868.88 947.72"/><polyline class="f" points="929.01 947.72 929.01 1037.93 898.95 1068 898.95 1037.93 898.95 1007.86 898.95 947.72"/><line class="f" x1="929.01" y1="797.38" x2="929.01" y2="887.59"/><line class="f" x1="898.95" y1="887.59" x2="898.95" y2="827.45"/><rect class="f" x="877.69" y="776.12" width="42.52" height="42.52" transform="translate(-300.54 869.2) rotate(-45)"/><polyline class="f" points="447.91 917.65 477.98 887.59 628.33 887.59 658.39 887.59 688.46 887.59 718.53 887.59"/><polyline class="f" points="718.53 947.72 688.46 947.72 658.39 947.72 628.33 947.72 477.98 947.72 447.91 917.65 628.33 917.65 658.39 917.65 688.46 917.65"/><rect class="f" x="697.27" y="896.39" width="42.52" height="42.52" transform="translate(-438.4 776.66) rotate(-44.99)"/><line class="f" x1="989.15" y1="887.59" x2="989.15" y2="797.38"/><line class="f" x1="989.15" y1="1037.93" x2="989.15" y2="947.72"/><line class="f" x1="1049.29" y1="947.72" x2="1049.29" y2="1007.86"/><line class="f" x1="1049.29" y1="827.45" x2="1049.29" y2="887.59"/><line class="f" x1="1019.22" y1="887.59" x2="1019.22" y2="827.45"/><line class="f" x1="1019.22" y1="1007.86" x2="1019.22" y2="947.72"/><polyline class="f" points="989.15 797.38 1019.22 767.31 1259.77 767.31"/><polyline class="f" points="1229.7 827.45 1049.29 827.45 1019.22 827.45 989.15 797.38 1019.22 797.38 1049.29 797.38 1229.7 797.38"/><polyline class="f" points="989.15 1037.93 1019.22 1007.86 1049.29 1007.86 1229.7 1007.86"/><polyline class="f" points="1259.77 1068 1019.22 1068 989.15 1037.93 1019.22 1037.93 1049.29 1037.93 1229.7 1037.93"/><polyline class="f" points="1229.7 887.59 1229.7 827.45 1229.7 797.38"/><polyline class="f" points="1259.77 1068 1229.7 1037.93 1229.7 1007.86 1229.7 947.72"/><polyline class="f" points="1289.84 947.72 1289.84 1037.93 1259.77 1068 1259.77 1037.93 1259.77 1007.86 1259.77 947.72"/><line class="f" x1="1289.84" y1="797.38" x2="1289.84" y2="887.59"/><line class="f" x1="1259.77" y1="887.59" x2="1259.77" y2="827.45"/><rect class="f" x="1238.51" y="776.12" width="42.53" height="42.53" transform="translate(-194.85 1124.34) rotate(-45)"/><polyline class="f" points="808.74 917.65 838.81 887.59 868.88 887.59 898.95 887.59 929.01 887.59 989.15 887.59 1019.22 887.59 1049.29 887.59 1079.36 887.59"/><polyline class="f" points="1079.36 947.72 1049.29 947.72 1019.22 947.72 989.15 947.72 929.01 947.72 898.95 947.72 868.88 947.72 838.81 947.72 808.74 917.65 868.88 917.65 898.95 917.65 929.01 917.65 989.15 917.65 1019.22 917.65 1049.29 917.65"/><rect class="f" x="1058.1" y="896.39" width="42.52" height="42.52" transform="translate(-332.76 1031.76) rotate(-44.99)"/><line class="f" x1="1349.98" y1="887.59" x2="1349.98" y2="797.38"/><line class="f" x1="1349.98" y1="1037.93" x2="1349.98" y2="947.72"/><line class="f" x1="1410.12" y1="947.72" x2="1410.12" y2="1007.86"/><line class="f" x1="1410.12" y1="827.45" x2="1410.12" y2="887.59"/><line class="f" x1="1380.05" y1="887.59" x2="1380.05" y2="827.45"/><line class="f" x1="1380.05" y1="1007.86" x2="1380.05" y2="947.72"/><polyline class="f" points="1349.98 797.38 1380.05 767.31 1620.6 767.31"/><polyline class="f" points="1590.53 827.45 1410.12 827.45 1380.05 827.45 1349.98 797.38 1380.05 797.38 1410.12 797.38 1590.53 797.38"/><polyline class="f" points="1349.98 1037.93 1380.05 1007.86 1410.12 1007.86 1590.53 1007.86"/><polyline class="f" points="1620.6 1068 1380.05 1068 1349.98 1037.93 1380.05 1037.93 1410.12 1037.93 1590.53 1037.93"/><polyline class="f" points="1590.53 887.59 1590.53 827.45 1590.53 797.38"/><polyline class="f" points="1620.6 1068 1590.53 1037.93 1590.53 1007.86 1590.53 947.72"/><polyline class="f" points="1650.67 947.72 1650.67 1037.93 1620.6 1068 1620.6 1037.93 1620.6 1007.86 1620.6 947.72"/><line class="f" x1="1650.67" y1="797.38" x2="1650.67" y2="887.59"/><line class="f" x1="1620.6" y1="887.59" x2="1620.6" y2="827.45"/><rect class="f" x="1599.34" y="776.12" width="42.53" height="42.53" transform="translate(-89.17 1379.49) rotate(-45)"/><polyline class="f" points="1169.57 917.65 1199.64 887.59 1229.7 887.59 1259.77 887.59 1289.84 887.59 1349.98 887.59 1380.05 887.59 1410.12 887.59 1440.19 887.59"/><polyline class="f" points="1440.19 947.72 1410.12 947.72 1380.05 947.72 1349.98 947.72 1289.84 947.72 1259.77 947.72 1229.7 947.72 1199.64 947.72 1169.57 917.65 1229.7 917.65 1259.77 917.65 1289.84 917.65 1349.98 917.65 1380.05 917.65 1410.12 917.65"/><rect class="f" x="1418.93" y="896.39" width="42.52" height="42.52" transform="translate(-227.12 1286.87) rotate(-44.99)"/><line class="f" x1="1709.5" y1="887.59" x2="1709.5" y2="797.38"/><line class="f" x1="1709.5" y1="1037.93" x2="1709.5" y2="947.72"/><line class="f" x1="1769.64" y1="947.72" x2="1769.64" y2="1007.86"/><line class="f" x1="1769.64" y1="827.45" x2="1769.64" y2="887.59"/><line class="f" x1="1739.57" y1="887.59" x2="1739.57" y2="827.45"/><line class="f" x1="1739.57" y1="1007.86" x2="1739.57" y2="947.72"/><polyline class="f" points="1709.5 797.38 1739.57 767.31 1980.12 767.31"/><polyline class="f" points="1980.12 827.45 1769.64 827.45 1739.57 827.45 1709.5 797.38 1739.57 797.38 1769.64 797.38 1950.05 797.38"/><rect class="f" x="1958.86" y="776.12" width="42.53" height="42.53" transform="translate(16.13 1633.71) rotate(-45)"/><polyline class="f" points="1709.5 1037.93 1739.57 1007.86 1769.64 1007.86 1980.12 1007.86"/><polyline class="f" points="1980.12 1068 1739.57 1068 1709.5 1037.93 1739.57 1037.93 1769.64 1037.93 1950.05 1037.93"/><rect class="f" x="1958.86" y="1016.67" width="42.53" height="42.53" transform="translate(-153.96 1704.16) rotate(-45)"/><polyline class="f" points="1529.08 917.65 1559.15 887.59 1560.46 887.59 1590.53 887.59 1620.6 887.59 1650.67 887.59 1709.5 887.59 1739.57 887.59 1769.64 887.59 1799.7 887.59"/><polyline class="f" points="1799.7 947.72 1769.64 947.72 1739.57 947.72 1709.5 947.72 1650.67 947.72 1620.6 947.72 1590.53 947.72 1560.46 947.72 1559.15 947.72 1529.08 917.65 1530.39 917.65 1590.53 917.65 1620.6 917.65 1650.67 917.65 1709.5 917.65 1739.57 917.65 1769.64 917.65"/><polygon class="f" points="1769.64 917.65 1799.7 887.59 1800.36 888.24 1801.01 888.9 1829.77 917.65 1801.01 946.41 1800.36 947.06 1799.7 947.72 1769.64 917.65"/></g></g><g><g><polygon class="b" points="2552.09 917.65 2522.02 947.72 2522.02 917.65 2522.02 887.59 2552.09 917.65"/><polygon class="b" points="2522.02 917.65 2522.02 947.72 2491.95 917.65 2522.02 917.65"/><polygon class="b" points="2522.02 887.59 2522.02 917.65 2491.95 917.65 2522.02 887.59"/><polygon class="b" points="2522.02 887.59 2491.95 917.65 2371.67 917.65 2371.67 887.59 2522.02 887.59"/><polygon class="b" points="2522.02 947.72 2371.67 947.72 2371.67 917.65 2491.95 917.65 2522.02 947.72"/><polygon class="b" points="2371.67 947.72 2371.67 1037.93 2341.61 1007.86 2341.61 947.72 2371.67 947.72"/><rect class="b" x="2341.61" y="917.65" width="30.06" height="30.07"/><rect class="b" x="2341.61" y="887.59" width="30.06" height="30.06"/><polygon class="b" points="2371.67 797.38 2371.67 887.59 2341.61 887.59 2341.61 827.45 2371.67 797.38"/><polygon class="b" points="2341.61 767.31 2371.67 797.38 2341.61 797.38 2341.61 767.31"/><polygon class="b" points="2371.67 797.38 2341.61 827.45 2341.61 797.38 2371.67 797.38"/><polygon class="b" points="2341.61 1007.86 2371.67 1037.93 2341.61 1068 2341.61 1037.93 2341.61 1007.86"/><polygon class="b" points="2341.61 1037.93 2341.61 1068 2311.54 1037.93 2341.61 1037.93"/><polygon class="b" points="2341.61 1007.86 2341.61 1037.93 2311.54 1037.93 2341.61 1007.86"/><rect class="b" x="2311.54" y="947.72" width="30.07" height="60.14"/><rect class="b" x="2311.54" y="917.65" width="30.07" height="30.07"/><rect class="b" x="2311.54" y="887.59" width="30.07" height="30.06"/><rect class="b" x="2311.54" y="827.45" width="30.07" height="60.14"/><polygon class="b" points="2341.61 797.38 2341.61 827.45 2311.54 797.38 2341.61 797.38"/><polygon class="b" points="2341.61 767.31 2341.61 797.38 2311.54 797.38 2341.61 767.31"/><polygon class="b" points="2341.61 767.31 2311.54 797.38 2131.12 797.38 2101.05 767.31 2341.61 767.31"/><polygon class="b" points="2341.61 1007.86 2311.54 1037.93 2311.54 1007.86 2341.61 1007.86"/><polygon class="b" points="2341.61 827.45 2311.54 827.45 2311.54 797.38 2341.61 827.45"/><polygon class="b" points="2341.61 1068 2101.05 1068 2131.12 1037.93 2311.54 1037.93 2341.61 1068"/><rect class="b" x="2131.12" y="1007.86" width="180.42" height="30.07"/><polygon class="b" points="2311.54 917.65 2311.54 947.72 2281.47 947.72 2251.4 917.65 2311.54 917.65"/><polygon class="b" points="2311.54 887.59 2311.54 917.65 2251.4 917.65 2281.47 887.59 2311.54 887.59"/><rect class="b" x="2131.12" y="797.38" width="180.42" height="30.07"/><polygon class="b" points="2191.26 917.65 2161.19 947.72 2161.19 917.65 2161.19 887.59 2191.26 917.65"/><polygon class="b" points="2161.19 917.65 2161.19 947.72 2131.12 917.65 2161.19 917.65"/><polygon class="b" points="2161.19 887.59 2161.19 917.65 2131.12 917.65 2161.19 887.59"/><polygon class="b" points="2161.19 887.59 2131.12 917.65 2131.12 887.59 2161.19 887.59"/><polygon class="b" points="2161.19 947.72 2131.12 947.72 2131.12 917.65 2161.19 947.72"/><rect class="b" x="2101.05" y="1007.86" width="30.07" height="30.07"/><rect class="b" x="2101.05" y="947.72" width="30.07" height="60.14"/><rect class="b" x="2101.05" y="917.65" width="30.07" height="30.07"/><rect class="b" x="2101.05" y="887.59" width="30.07" height="30.06"/><rect class="b" x="2101.05" y="827.45" width="30.07" height="60.14"/><polygon class="b" points="2131.12 797.38 2131.12 827.45 2101.05 827.45 2131.12 797.38"/><polygon class="b" points="2131.12 797.38 2101.05 827.45 2101.05 797.38 2131.12 797.38"/><polygon class="b" points="2131.12 1037.93 2101.05 1068 2101.05 1037.93 2131.12 1037.93"/><polygon class="b" points="2131.12 797.38 2101.05 797.38 2070.99 797.38 2101.05 767.31 2131.12 797.38"/><polygon class="b" points="2101.05 1037.93 2101.05 1068 2070.99 1037.93 2101.05 1037.93"/><polygon class="b" points="2101.05 1007.86 2101.05 1037.93 2070.99 1037.93 2101.05 1007.86"/><polygon class="b" points="2101.05 947.72 2101.05 1007.86 2070.99 1037.93 2070.99 947.72 2101.05 947.72"/><rect class="b" x="2070.99" y="917.65" width="30.06" height="30.07"/><rect class="b" x="2070.99" y="887.59" width="30.06" height="30.06"/><polygon class="b" points="2101.05 827.45 2101.05 887.59 2070.99 887.59 2070.99 797.38 2101.05 827.45"/><polygon class="b" points="2101.05 797.38 2101.05 827.45 2070.99 797.38 2101.05 797.38"/><polygon class="b" points="2070.99 917.65 2070.99 947.72 1920.64 947.72 1890.57 917.65 2070.99 917.65"/><polygon class="b" points="2070.99 887.59 2070.99 917.65 1890.57 917.65 1920.64 887.59 2070.99 887.59"/></g><g><line class="f" x1="2070.99" y1="887.59" x2="2070.99" y2="797.38"/><line class="f" x1="2070.99" y1="1037.93" x2="2070.99" y2="947.72"/><line class="f" x1="2131.12" y1="947.72" x2="2131.12" y2="1007.86"/><line class="f" x1="2131.12" y1="827.45" x2="2131.12" y2="887.59"/><line class="f" x1="2101.05" y1="887.59" x2="2101.05" y2="827.45"/><line class="f" x1="2101.05" y1="1007.86" x2="2101.05" y2="947.72"/><polyline class="f" points="2070.99 797.38 2101.05 767.31 2341.61 767.31"/><polyline class="f" points="2311.54 827.45 2131.12 827.45 2101.05 827.45 2070.99 797.38 2101.05 797.38"/><line class="f" x1="2131.12" y1="797.38" x2="2311.54" y2="797.38"/><polyline class="f" points="2070.99 1037.93 2101.05 1007.86 2131.12 1007.86 2311.54 1007.86"/><polyline class="f" points="2341.61 1068 2101.05 1068 2070.99 1037.93 2101.05 1037.93 2131.12 1037.93 2311.54 1037.93"/><polyline class="f" points="2311.54 887.59 2311.54 827.45 2311.54 797.38"/><polyline class="f" points="2341.61 1068 2311.54 1037.93 2311.54 1007.86 2311.54 947.72"/><polyline class="f" points="2371.67 947.72 2371.67 1037.93 2341.61 1068 2341.61 1037.93"/><line class="f" x1="2371.67" y1="797.38" x2="2371.67" y2="887.59"/><line class="f" x1="2341.61" y1="887.59" x2="2341.61" y2="827.45"/><line class="f" x1="2341.61" y1="1007.86" x2="2341.61" y2="947.72"/><rect class="f" x="2320.34" y="776.12" width="42.52" height="42.52" transform="translate(122.01 1889.31) rotate(-45)"/><polyline class="f" points="1890.57 917.65 1920.64 887.59 2070.99 887.59 2101.05 887.59 2131.12 887.59 2161.19 887.59"/><polyline class="f" points="2161.19 947.72 2131.12 947.72 2101.05 947.72 2070.99 947.72 1920.64 947.72 1890.57 917.65 2070.99 917.65 2101.05 917.65 2131.12 917.65"/><rect class="f" x="2139.93" y="896.39" width="42.52" height="42.52" transform="translate(-16.03 1796.6) rotate(-44.99)"/><polyline class="f" points="2251.4 917.65 2281.47 887.59 2311.54 887.59 2341.61 887.59 2371.67 887.59 2522.02 887.59"/><polyline class="f" points="2522.02 947.72 2371.67 947.72 2341.61 947.72 2311.54 947.72 2281.47 947.72 2251.4 917.65 2311.54 917.65 2341.61 917.65 2371.67 917.65 2491.95 917.65"/><rect class="f" x="2500.76" y="896.39" width="42.52" height="42.52" transform="translate(89.61 2051.71) rotate(-44.99)"/></g></g><g><g><polygon class="b" points="2010.19 797.38 2010.19 1037.93 1980.12 1068 1980.12 827.45 2010.19 797.38"/><polygon class="b" points="2010.19 797.38 1980.12 827.45 1980.12 797.38 2010.19 797.38"/><polygon class="b" points="2010.19 797.38 1980.12 797.38 1950.05 797.38 1980.12 767.31 2010.19 797.38"/><polygon class="b" points="1980.12 827.45 1980.12 1068 1950.05 1037.93 1950.05 797.38 1980.12 827.45"/><polygon class="b" points="1980.12 797.38 1980.12 827.45 1950.05 797.38 1980.12 797.38"/></g><g><polyline class="f" points="1980.12 1068 1950.05 1037.93 1950.05 797.38"/><polyline class="f" points="2010.19 797.38 2010.19 1037.93 1980.12 1068 1980.12 827.45"/><rect class="f" x="1958.86" y="776.12" width="42.53" height="42.53" transform="translate(16.13 1633.71) rotate(-45)"/></g></g><g><g><polygon class="b" points="2340.95 1037.93 2340.95 1068 2100.39 1068 2130.46 1037.93 2320.95 1037.93 2340.95 1037.93"/><polygon class="b" points="2340.95 767.31 2310.88 797.38 2070.33 797.38 2100.39 767.31 2340.95 767.31"/><polygon class="b" points="2340.95 827.45 2130.46 827.45 2130.46 812.31 2100.39 812.31 2100.39 827.45 2070.33 797.38 2310.88 797.38 2340.95 827.45"/><rect class="b" x="2130.46" y="1007.86" width="190.49" height="30.07"/><polygon class="b" points="2190.6 917.65 2160.53 947.72 2160.53 917.65 2160.53 887.59 2190.6 917.65"/><polygon class="b" points="2160.53 917.65 2160.53 947.72 2130.46 917.65 2160.53 917.65"/><polygon class="b" points="2160.53 887.59 2160.53 917.65 2130.46 917.65 2160.53 887.59"/><polygon class="b" points="2160.53 887.59 2130.46 917.65 2130.46 887.59 2160.53 887.59"/><polygon class="b" points="2160.53 947.72 2130.46 947.72 2130.46 917.65 2160.53 947.72"/><rect class="b" x="2100.39" y="1007.86" width="30.07" height="30.07"/><rect class="b" x="2100.39" y="947.72" width="30.07" height="60.14"/><rect class="b" x="2100.39" y="917.65" width="30.07" height="30.07"/><rect class="b" x="2100.39" y="887.59" width="30.07" height="30.06"/><rect class="b" x="2100.39" y="827.45" width="30.07" height="60.14"/><rect class="b" x="2100.39" y="812.31" width="30.07" height="15.14"/><polygon class="b" points="2130.46 1037.93 2100.39 1068 2100.39 1037.93 2130.46 1037.93"/><polygon class="b" points="2100.39 1037.93 2100.39 1068 2070.33 1037.93 2100.39 1037.93"/><polygon class="b" points="2100.39 1007.86 2100.39 1037.93 2070.33 1037.93 2100.39 1007.86"/><polygon class="b" points="2100.39 947.72 2100.39 1007.86 2070.33 1037.93 2070.33 947.72 2100.39 947.72"/><rect class="b" x="2070.33" y="917.65" width="30.06" height="30.07"/><rect class="b" x="2070.33" y="887.59" width="30.06" height="30.06"/><polygon class="b" points="2100.39 827.45 2100.39 887.59 2070.33 887.59 2070.33 797.38 2100.39 827.45"/><polygon class="b" points="2070.33 917.65 2070.33 947.72 1919.98 947.72 1889.91 917.65 2070.33 917.65"/><polygon class="b" points="2070.33 887.59 2070.33 917.65 1889.91 917.65 1919.98 887.59 2070.33 887.59"/></g><g><line class="f" x1="2070.33" y1="887.59" x2="2070.33" y2="797.38"/><line class="f" x1="2070.33" y1="1037.93" x2="2070.33" y2="947.72"/><line class="f" x1="2130.46" y1="947.72" x2="2130.46" y2="1007.86"/><line class="f" x1="2130.46" y1="827.45" x2="2130.46" y2="887.59"/><line class="f" x1="2100.39" y1="887.59" x2="2100.39" y2="827.45"/><line class="f" x1="2100.39" y1="1007.86" x2="2100.39" y2="947.72"/><polyline class="f" points="2070.33 797.38 2100.39 767.31 2340.95 767.31 2310.88 797.38"/><polyline class="f" points="2340.95 827.45 2130.46 827.45 2100.39 827.45 2070.33 797.38 2310.88 797.38"/><polyline class="f" points="2070.33 1037.93 2100.39 1007.86 2130.46 1007.86 2320.95 1007.86 2320.95 1037.93"/><polyline class="f" points="2070.33 1037.93 2100.39 1037.93 2130.46 1037.93 2320.95 1037.93"/><line class="f" x1="2310.88" y1="797.38" x2="2340.95" y2="827.45"/><line class="f" x1="2371.01" y1="1037.93" x2="2340.95" y2="1068"/><polyline class="f" points="1889.91 917.65 1919.98 887.59 2070.33 887.59 2100.39 887.59 2130.46 887.59 2160.53 887.59"/><polyline class="f" points="2160.53 947.72 2130.46 947.72 2100.39 947.72 2070.33 947.72 1919.98 947.72 1889.91 917.65 2070.33 917.65 2100.39 917.65 2130.46 917.65"/><rect class="f" x="2139.27" y="896.39" width="42.52" height="42.52" transform="translate(-16.22 1796.14) rotate(-44.99)"/></g></g><g><g><polygon class="b" points="2371.02 797.38 2371.02 1037.93 2340.95 1068 2340.95 827.45 2371.02 797.38"/><polygon class="b" points="2371.02 797.38 2340.95 827.45 2340.95 797.38 2371.02 797.38"/><polygon class="b" points="2371.02 797.38 2340.95 797.38 2310.88 797.38 2340.95 767.31 2371.02 797.38"/><polygon class="b" points="2340.95 827.45 2340.95 1068 2310.88 1037.93 2310.88 797.38 2340.95 827.45"/><polygon class="b" points="2340.95 797.38 2340.95 827.45 2310.88 797.38 2340.95 797.38"/></g><g><polyline class="f" points="2340.95 1068 2310.88 1037.93 2310.88 797.38"/><polyline class="f" points="2371.02 797.38 2371.02 1037.93 2340.95 1068 2340.95 827.45"/><rect class="f" x="2319.69" y="776.12" width="42.53" height="42.53" transform="translate(121.82 1888.85) rotate(-45)"/></g></g></g></svg>
